<svg width="25" height="27" viewBox="0 0 25 27" fill="none" xmlns="http://www.w3.org/2000/svg">
<path d="M12.5 27C5.60795 27 0 21.5324 0 14.8129C0 8.09337 5.60795 2.62578 12.5 2.62578C19.392 2.62578 25 8.09337 25 14.8129C25 21.5324 19.392 27 12.5 27ZM12.5 4.28766C6.54545 4.28766 1.70455 9.0074 1.70455 14.8129C1.70455 20.6184 6.54545 25.3381 12.5 25.3381C18.4545 25.3381 23.2955 20.6184 23.2955 14.8129C23.2955 9.0074 18.4545 4.28766 12.5 4.28766Z" fill="#005BBD"/>
<path d="M13.3523 -0.501684H11.6477V13.2303H13.3523V-0.501684Z" fill="#005BBD"/>
<path d="M13.3523 -0.501707V13.2303H11.6478V-0.501707H13.3523ZM15.0568 -2.69999H13.3523H11.6478H9.94321V-0.501707V13.2303V15.4285H11.6478H13.3523H15.0568V13.2303V-0.501707V-2.69999Z" fill="white"/>
</svg>
