<svg width="38" height="25" viewBox="0 0 38 25" fill="none" xmlns="http://www.w3.org/2000/svg">
<path d="M38 21.3813H0V6.25H38V21.3813ZM1.8078 19.5063H36.1922V8.125H1.8078V19.5063Z" fill="#005BBD"/>
<path d="M27.135 14.0625C30.6295 14.0625 33.4624 11.1244 33.4624 7.5C33.4624 3.87563 30.6295 0.9375 27.135 0.9375C23.6406 0.9375 20.8077 3.87563 20.8077 7.5C20.8077 11.1244 23.6406 14.0625 27.135 14.0625Z" fill="white"/>
<path d="M27.1351 15C23.1459 15 19.9039 11.6375 19.9039 7.5C19.9039 3.3625 23.1459 0 27.1351 0C31.1243 0 34.3663 3.3625 34.3663 7.5C34.3663 11.6375 31.1243 15 27.1351 15ZM27.1351 1.875C24.1462 1.875 21.7117 4.4 21.7117 7.5C21.7117 10.6 24.1462 13.125 27.1351 13.125C30.124 13.125 32.5585 10.6 32.5585 7.5C32.5585 4.4 30.13 1.875 27.1351 1.875Z" fill="#005BBD"/>
<path d="M12.9739 10.625H5.14014V12.5H12.9739V10.625Z" fill="#005BBD"/>
<path d="M12.9739 14.6688H5.14014V16.5438H12.9739V14.6688Z" fill="#005BBD"/>
<path d="M6.91187 20.4437H5.10406V25H6.91187V20.4437Z" fill="#005BBD"/>
<path d="M33.4263 20.4437H31.6185V25H33.4263V20.4437Z" fill="#005BBD"/>
</svg>
