<svg width="38" height="23" viewBox="0 0 38 23" fill="none" xmlns="http://www.w3.org/2000/svg">
<g clip-path="url(#clip0)">
<path d="M36.4969 7.1254L29.7579 0H8.14852L1.50309 7.1254H1V23.0061H37V7.1254H36.4969ZM8.89145 1.8177H29.0208L34.0341 7.1254H3.94248L8.89145 1.8177ZM35.245 21.1823H2.75496V8.9431H35.245V21.1823Z" fill="#005BBD"/>
<path d="M6.8557 16.8198H4.81995V18.6375H6.8557V16.8198Z" fill="#005BBD"/>
<path d="M11.5356 16.8198H9.49985V18.6375H11.5356V16.8198Z" fill="#005BBD"/>
<path d="M16.2155 16.8198H14.1797V18.6375H16.2155V16.8198Z" fill="#005BBD"/>
<path d="M20.8954 16.8198H18.8596V18.6375H20.8954V16.8198Z" fill="#005BBD"/>
<path d="M25.5752 16.8198H23.5395V18.6375H25.5752V16.8198Z" fill="#005BBD"/>
<path d="M30.2551 16.8198H28.2194V18.6375H30.2551V16.8198Z" fill="#005BBD"/>
<path d="M25.5752 12.5785H23.5395V14.3962H25.5752V12.5785Z" fill="#005BBD"/>
<path d="M30.2551 12.5785H28.2194V14.3962H30.2551V12.5785Z" fill="#005BBD"/>
</g>
<defs>
<clipPath id="clip0">
<rect width="38" height="23" fill="white"/>
</clipPath>
</defs>
</svg>
