<svg width="31" height="25" viewBox="0 0 31 25" fill="none" xmlns="http://www.w3.org/2000/svg">
<path d="M31 25H0V2.80681H31V25ZM1.47479 23.5752H29.5252V4.23158H1.47479V23.5752Z" fill="#005BBD"/>
<path d="M27.7211 0.712387H21.3549V5.99354H27.7211V0.712387Z" fill="white"/>
<path d="M28.4535 6.70593H20.6175V0H28.4585V6.70593H28.4535ZM22.0923 5.28115H26.9837V1.42477H22.0923V5.28115Z" fill="#005BBD"/>
<path d="M4.94545 7.85049V19.4909H11.1543" fill="white"/>
<path d="M11.1543 20.2033H4.20806V7.85049H5.68285V18.7785H11.1543V20.2033Z" fill="#005BBD"/>
<path d="M14.6299 18.7785H13.0764V20.2033H14.6299V18.7785Z" fill="#005BBD"/>
<path d="M26.0595 18.7785H16.5569V20.2033H26.0595V18.7785Z" fill="#005BBD"/>
<path d="M9.60085 15.5395H8.04741V16.9643H9.60085V15.5395Z" fill="#005BBD"/>
<path d="M9.60085 11.7354H8.04741V13.1601H9.60085V11.7354Z" fill="#005BBD"/>
<path d="M9.60085 7.93599H8.04741V9.36076H9.60085V7.93599Z" fill="#005BBD"/>
<path d="M13.8532 7.85049V16.2519H26.0546" fill="white"/>
<path d="M26.0546 16.9643H13.1158V7.85049H14.5906V15.5395H26.0546V16.9643Z" fill="#005BBD"/>
<path d="M18.9166 11.7354H17.3631V13.1601H18.9166V11.7354Z" fill="#005BBD"/>
<path d="M18.9166 7.93599H17.3631V9.36076H18.9166V7.93599Z" fill="#005BBD"/>
<path d="M26.0595 11.7354H24.506V13.1601H26.0595V11.7354Z" fill="#005BBD"/>
</svg>
