<svg width="38" height="29" viewBox="0 0 38 29" fill="none" xmlns="http://www.w3.org/2000/svg">
<path d="M29.6688 15.8173L21.2773 2.53281L19.6269 3.56538L17.3752 0L6 7.08909L8.25173 10.6545L6.59673 11.6871L14.9883 24.9716C16.634 27.5738 19.4544 29 22.3449 29C23.916 29 25.5103 28.574 26.9369 27.685C28.8996 26.4626 30.2609 24.5548 30.7784 22.3137C31.2958 20.0726 30.8996 17.7667 29.6688 15.8173ZM16.9323 1.91697L18.4428 4.30624L9.43587 9.91825L7.92539 7.52898L16.9323 1.91697ZM29.4124 22.0035C28.9788 23.8834 27.8367 25.4809 26.191 26.5089C22.7971 28.6249 18.3029 27.6016 16.1724 24.2307L8.52679 12.1223L8.99765 11.8306L16.5827 7.10299L20.8391 4.44978L28.4847 16.5536C29.5196 18.1881 29.846 20.1236 29.4124 22.0035Z" fill="#005BBD"/>
</svg>
