<svg width="38" height="22" viewBox="0 0 38 22" fill="none" xmlns="http://www.w3.org/2000/svg">
<path d="M2 0V22H36V0H2ZM34.3825 20.3984H3.61751V1.60155H34.3825V20.3984Z" fill="#005BBD"/>
<path d="M8.20045 5.3385H6.59912V6.94005H8.20045V5.3385Z" fill="#005BBD"/>
<path d="M11.9746 5.3385H10.3733V6.94005H11.9746V5.3385Z" fill="#005BBD"/>
<path d="M15.7488 5.3385H14.1475V6.94005H15.7488V5.3385Z" fill="#005BBD"/>
<path d="M19.523 5.3385H17.9217V6.94005H19.523V5.3385Z" fill="#005BBD"/>
<path d="M23.2972 5.3385H21.6959V6.94005H23.2972V5.3385Z" fill="#005BBD"/>
<path d="M27.0714 5.3385H25.47V6.94005H27.0714V5.3385Z" fill="#005BBD"/>
<path d="M8.20045 10.1432H6.59912V11.7447H8.20045V10.1432Z" fill="#005BBD"/>
<path d="M11.9746 10.1432H10.3733V11.7447H11.9746V10.1432Z" fill="#005BBD"/>
<path d="M15.7488 10.1432H14.1475V11.7447H15.7488V10.1432Z" fill="#005BBD"/>
<path d="M19.523 10.1432H17.9217V11.7447H19.523V10.1432Z" fill="#005BBD"/>
<path d="M23.2972 10.1432H21.6959V11.7447H23.2972V10.1432Z" fill="#005BBD"/>
<path d="M8.20045 14.9478H6.59912V16.5494H8.20045V14.9478Z" fill="#005BBD"/>
<path d="M27.0767 16.5494V14.9478H25.47H10.3733V16.5494H25.47H27.0767Z" fill="#005BBD"/>
<path d="M30.8455 14.9478H29.2442V16.5494H30.8455V14.9478Z" fill="#005BBD"/>
<path d="M27.0768 11.7447H29.2442H30.8509H30.8563V6.13928H30.8509V5.3385H29.2442V6.13928H29.2388V10.1432H27.0768H26.2734H25.47V11.7447H26.2734H27.0768Z" fill="#005BBD"/>
</svg>
