<svg width="22" height="25" viewBox="0 0 22 25" fill="none" xmlns="http://www.w3.org/2000/svg">
<path d="M21.5472 14.9318L19.0708 8.10703C18.3889 6.22417 17.0104 4.71884 15.1967 3.87179C13.6054 3.12639 11.8401 2.96666 10.1569 3.40229L9.99731 2.96182C9.91508 2.58912 9.49914 0.986993 8.28514 0.299675C7.65638 -0.0536648 6.92121 -0.0972272 6.15703 0.178668C5.59114 0.38196 5.09297 0.623973 4.60931 0.851466C3.1293 1.56299 2.23936 1.99377 0.914122 0.91923L0 2.04217C2.03622 3.69754 3.66616 2.91826 5.23807 2.16318C5.68787 1.94537 6.15703 1.72271 6.6552 1.54362C7.13886 1.36937 7.40971 1.47102 7.57416 1.55815C8.18357 1.9018 8.51246 2.93278 8.58985 3.2958L8.80266 3.89116C5.35898 5.53201 3.65165 9.56395 4.98173 13.2232L7.45808 20.048C8.14004 21.9308 9.51848 23.4362 11.3322 24.2832C12.3431 24.7576 13.4216 24.9947 14.5002 24.9947C15.3611 24.9947 16.2269 24.8447 17.0636 24.5397C18.9451 23.8573 20.4493 22.4778 21.2957 20.6627C22.1372 18.8524 22.2291 16.8147 21.5472 14.9318ZM19.9753 20.0528C19.2933 21.5146 18.0793 22.6278 16.5606 23.1796C15.0419 23.7314 13.4023 23.6588 11.9368 22.9763C10.4761 22.2939 9.36371 21.079 8.81233 19.5591L6.33598 12.7343C5.19937 9.59783 6.81964 6.12252 9.95378 4.98022C10.6261 4.73336 11.3225 4.61236 12.019 4.61236C12.8896 4.61236 13.7602 4.80597 14.5728 5.18351C16.0383 5.86599 17.1458 7.08089 17.6972 8.60074L20.1736 15.4255C20.7346 16.9454 20.6572 18.5911 19.9753 20.0528Z" fill="#005BBD"/>
<path d="M11.6315 7.46379L10.2675 7.95938L11.537 11.4582L12.9009 10.9626L11.6315 7.46379Z" fill="#005BBD"/>
</svg>
