<svg width="32" height="29" viewBox="0 0 32 29" fill="none" xmlns="http://www.w3.org/2000/svg">
<path d="M28.6201 6.98502H26.9301V8.61575H28.6201V6.98502Z" fill="#005BBD"/>
<path d="M25.235 3.46804V0H6.51544V3.46804H0V23.6784H6.51544H7.29542H8.0754V13.6276H23.675V23.6784H23.935H25.235H32V3.46804H25.235ZM8.0754 1.63074H23.675V3.46804H8.0754V1.63074ZM30.44 22.0476H25.235V11.9968H6.51544V22.0476H1.55996V5.09878H30.44V22.0476Z" fill="#005BBD"/>
<path d="M10.7325 14.769H9.17256V29H10.7325V14.769Z" fill="#005BBD"/>
<path d="M22.2086 14.769H20.6487V29H22.2086V14.769Z" fill="#005BBD"/>
<path d="M18.3919 14.769H16.832V27.2823H18.3919V14.769Z" fill="#005BBD"/>
<path d="M14.5752 14.769H13.0153V27.2823H14.5752V14.769Z" fill="#005BBD"/>
</svg>
