<svg width="25" height="25" viewBox="0 0 25 25" fill="none" xmlns="http://www.w3.org/2000/svg">
<path d="M20.4791 25H4.15195V0H25V20.8524C25.0052 23.1381 22.9734 25 20.4791 25ZM5.71087 23.5714H20.4791C22.116 23.5714 23.4463 22.3524 23.4463 20.8524V1.42857H5.71087V23.5714Z" fill="#005BBD"/>
<path d="M20.079 17.3619H4.56764C4.56764 17.3619 0.779449 17.8334 0.779449 20.8238C0.779449 23.8143 3.68425 24.2857 3.68425 24.2857H15.4489H20.2764C20.2764 24.2857 17.0235 23.7429 17.0235 20.8238C17.0235 17.9048 20.079 17.3619 20.079 17.3619Z" fill="white"/>
<path d="M20.2764 25L3.54916 24.9905C2.3228 24.7905 0 23.6619 0 20.8238C0 17.9667 2.92039 16.8476 4.46373 16.6524L4.56765 16.6476H20.0738L20.2245 18.0619C19.975 18.1095 17.7977 18.581 17.7977 20.8238C17.7977 23.1 20.3076 23.5667 20.4115 23.5857L20.2764 25ZM3.76741 23.5715H17.3664C16.7221 22.9191 16.2492 22.0238 16.2492 20.8238C16.2492 19.6238 16.6961 18.7286 17.3093 18.0762H4.63001C4.22989 18.1381 1.55893 18.6286 1.55893 20.8238C1.55893 22.9762 3.35689 23.4857 3.76741 23.5715Z" fill="#005BBD"/>
</svg>
