<svg width="35" height="29" viewBox="0 0 35 29" fill="none" xmlns="http://www.w3.org/2000/svg">
<path d="M27.9761 13.6588H25.0414H9.68557H7.02389C3.1508 13.6588 0 17.0983 0 21.3263C0 25.5543 3.1508 28.9938 7.02389 28.9938H9.68557H25.0414H27.9761C31.8492 28.9938 35 25.5543 35 21.3263C35 17.0983 31.8492 13.6588 27.9761 13.6588ZM27.9761 15.5213C29.8984 15.5213 31.5819 16.6451 32.5146 18.3151H25.0414V15.5213H27.9761ZM33.2938 21.3263C33.2938 21.7857 33.2369 22.2327 33.1459 22.6611H25.0414V20.1777H33.1914C33.2597 20.5502 33.2938 20.9351 33.2938 21.3263ZM1.70621 21.3263C1.70621 20.9351 1.74033 20.5502 1.81427 20.1777H9.69126V22.6611H1.85408C1.76308 22.2327 1.70621 21.7857 1.70621 21.3263ZM7.02389 15.5213H9.68557V18.3151H2.48538C3.42379 16.6451 5.10156 15.5213 7.02389 15.5213ZM7.02389 27.1375C5.16981 27.1375 3.53754 26.0944 2.58775 24.5237H9.68557V27.1375H7.02389ZM11.3918 27.1375V15.5213H23.3352V27.1375H11.3918ZM27.9761 27.1375H25.0414V24.5237H32.4123C31.4625 26.0944 29.8302 27.1375 27.9761 27.1375Z" fill="#005BBD"/>
<path d="M14.3265 10.1385L15.845 10.9829C15.8848 10.9084 16.2602 10.2316 17.3635 10.2316C18.4327 10.2316 18.7626 10.8711 18.7854 10.9208L20.3494 10.182C20.0821 9.51145 19.155 8.36908 17.3635 8.36908C15.6004 8.36908 14.6222 9.48661 14.3265 10.1385Z" fill="#005BBD"/>
<path d="M23.1646 9.33139L24.5694 8.27594C23.648 6.81073 21.4982 4.34595 17.4431 4.34595C13.7918 4.34595 11.5908 6.30163 10.3908 7.93447L11.7216 9.10167C12.6885 7.77926 14.4686 6.2085 17.4431 6.2085C20.5484 6.2085 22.2717 7.90343 23.1646 9.33139Z" fill="#005BBD"/>
<path d="M17.5683 1.86256C21.4755 1.86256 24.814 3.2781 27.4927 6.07814L28.67 4.73089C25.6671 1.58938 21.9305 0 17.5683 0C13.2573 0 9.48654 1.55834 6.36987 4.63776L7.51303 6.01606C10.3055 3.25947 13.6895 1.86256 17.5683 1.86256Z" fill="#005BBD"/>
</svg>
