<svg width="29" height="25" viewBox="0 0 29 25" fill="none" xmlns="http://www.w3.org/2000/svg">
<path d="M25.6935 11.1782C25.7624 10.5078 26.0384 6.45207 23.4263 3.38056C21.5224 1.13636 18.5745 0 14.6702 0C10.752 0 7.81795 1.15538 5.96464 3.43286C3.78021 6.11449 3.73882 9.54736 3.84919 11.0546C1.66936 11.4254 0 13.3891 0 15.7474V20.2311C0 22.8604 2.06946 25 4.61259 25C7.15572 25 9.22518 22.8604 9.22518 20.2311V15.7474C9.22518 13.3368 7.48684 11.3446 5.23803 11.0308C5.14605 9.78984 5.13225 6.66603 7.03156 4.34576C8.60894 2.40586 11.1797 1.4264 14.6702 1.4264C18.1514 1.4264 20.7452 2.39635 22.3823 4.31248C24.5622 6.86573 24.3782 10.3699 24.323 10.9833C21.8121 11.0213 19.7748 13.1419 19.7748 15.7474V20.2311C19.7748 22.8604 21.8443 25 24.3874 25C26.9305 25 29 22.8604 29 20.2311V15.7474C29 13.5888 27.602 11.7583 25.6935 11.1782ZM7.84094 15.7474V20.2311C7.84094 22.0711 6.39232 23.5736 4.60799 23.5736C2.82826 23.5736 1.37964 22.0759 1.37964 20.2311V15.7474C1.37964 13.9074 2.82826 12.4049 4.61259 12.4049C6.39692 12.4049 7.84094 13.9026 7.84094 15.7474ZM27.6204 20.2311C27.6204 22.0711 26.1717 23.5736 24.3874 23.5736C22.6031 23.5736 21.1545 22.0759 21.1545 20.2311V15.7474C21.1545 13.9074 22.6031 12.4049 24.3874 12.4049C26.1717 12.4049 27.6204 13.9026 27.6204 15.7474V20.2311Z" fill="#005BBD"/>
</svg>
