<svg width="38" height="25" viewBox="0 0 38 25" fill="none" xmlns="http://www.w3.org/2000/svg">
<path d="M26.9511 5.37788L25.3424 0H11.6576L10.0489 5.37788H2V25H35V5.37788H26.9511ZM12.8642 1.58328H24.1412L25.278 5.37788H11.7273L12.8642 1.58328ZM33.3913 23.4167H3.60871V6.96116H9.57702H27.423H33.3913V23.4167Z" fill="#005BBD"/>
<path d="M18.5 8.84528C14.7142 8.84528 11.6362 11.8746 11.6362 15.6006C11.6362 19.3266 14.7142 22.3559 18.5 22.3559C22.2858 22.3559 25.3638 19.3266 25.3638 15.6006C25.3638 11.8746 22.2858 8.84528 18.5 8.84528ZM18.5 20.7726C15.6043 20.7726 13.2449 18.4505 13.2449 15.6006C13.2449 12.7507 15.6043 10.4286 18.5 10.4286C21.3957 10.4286 23.7551 12.7507 23.7551 15.6006C23.7551 18.4505 21.401 20.7726 18.5 20.7726Z" fill="#005BBD"/>
<path d="M8.65472 8.84528H6.21484V10.4286H8.65472V8.84528Z" fill="#005BBD"/>
</svg>
