<svg width="38" height="25" viewBox="0 0 38 25" fill="none" xmlns="http://www.w3.org/2000/svg">
<path d="M8.22927 0C4.2439 0 1 3.14213 1 7.00246C1 10.6218 3.85366 13.6127 7.49756 13.9671V25H8.96098V13.9671C12.6049 13.6127 15.4585 10.6218 15.4585 7.00246C15.4537 3.14213 12.2146 0 8.22927 0ZM8.22927 12.5874C5.04878 12.5874 2.46341 10.0784 2.46341 7.00246C2.46341 3.92175 5.04878 1.4175 8.22927 1.4175C11.4098 1.4175 13.9951 3.92175 13.9951 7.00246C13.9902 10.0784 11.4049 12.5874 8.22927 12.5874Z" fill="#005BBD"/>
<path d="M8.2293 3.45398C6.20979 3.45398 4.56589 5.04631 4.56589 7.00246C4.56589 8.95861 6.20979 10.5509 8.2293 10.5509C10.2488 10.5509 11.8927 8.95861 11.8927 7.00246C11.8927 5.04631 10.2488 3.45398 8.2293 3.45398ZM8.2293 9.13344C7.01467 9.13344 6.0293 8.17899 6.0293 7.00246C6.0293 5.82593 7.01467 4.87148 8.2293 4.87148C9.44394 4.87148 10.4293 5.82593 10.4293 7.00246C10.4293 8.17426 9.43906 9.13344 8.2293 9.13344Z" fill="#005BBD"/>
<path d="M37 0H29.8683V1.80495H28.7415V0H24.1415C20.3561 0 17.278 2.98148 17.278 6.64808C17.278 10.3147 20.3561 13.2962 24.1415 13.2962H28.7415V11.4912H29.8683V13.2962H30.7463V16.1642H32.7024V24.9953H34.1659V16.169H36.122V13.3009H37V0ZM27.2732 11.8834H24.1366C21.1561 11.8834 18.7366 9.53506 18.7366 6.65281C18.7366 3.77055 21.161 1.4175 24.1366 1.4175H27.2732V11.8834ZM28.9659 10.0784V3.22245H29.8683V10.0784H28.9659ZM31.3317 1.80495V1.4175H35.5415V11.8834H31.3317V11.4959V1.80495ZM34.6585 14.7515H32.2049V13.3009H34.6585V14.7515Z" fill="#005BBD"/>
</svg>
