<svg width="38" height="25" viewBox="0 0 38 25" fill="none" xmlns="http://www.w3.org/2000/svg">
<path d="M25.9462 5.35374C25.6371 2.3512 23.0739 0 19.9725 0H7.1139V5.17369H3V6.76234H7.1139V11.936H19.9725C22.9514 11.936 25.424 9.77018 25.8929 6.94238C30.0974 7.34484 33.4013 10.8716 33.4013 15.1557C33.4013 19.7098 29.6764 23.4114 25.0936 23.4114H3V25H25.0936C30.5557 25 35 20.5836 35 15.1557C34.9947 10.0138 31.0087 5.78797 25.9462 5.35374ZM19.9725 10.3474H8.71257V1.58865H19.9725C22.4025 1.58865 24.3795 3.55327 24.3795 5.96802C24.3795 8.38276 22.4025 10.3474 19.9725 10.3474Z" fill="#005BBD"/>
</svg>
