<svg width="29" height="25" viewBox="0 0 29 25" fill="none" xmlns="http://www.w3.org/2000/svg">
<path d="M0 0V25H29V0H0ZM27.6204 11.7724H15.1898V1.4504H27.6204V11.7724ZM13.8102 1.4504V11.7724H1.37964V1.4504H13.8102ZM1.37964 13.2228H13.8102V23.5448H1.37964V13.2228ZM15.1898 23.5496V13.2228H27.6204V23.5448H15.1898V23.5496Z" fill="#005BBD"/>
<path d="M6.70964 9.06497H8.08928V7.2278H9.83222V5.7774H8.08928V3.94507H6.70964V5.7774H4.9621V7.2278H6.70964V9.06497Z" fill="#005BBD"/>
<path d="M9.83222 17.8157H4.9621V19.2661H9.83222V17.8157Z" fill="#005BBD"/>
<path d="M20.3945 4.18213L19.4189 5.2077L22.8626 8.82798L23.8382 7.80241L20.3945 4.18213Z" fill="#005BBD"/>
<path d="M23.9965 3.76617H22.764V5.21657H23.9965V3.76617Z" fill="#005BBD"/>
<path d="M20.1887 7.4502H18.9562V8.90059H20.1887V7.4502Z" fill="#005BBD"/>
<path d="M22.5341 16.2155L21.297 17.516L20.0645 16.2155L19.0896 17.2404L20.3221 18.5409L19.0896 19.8366L20.0645 20.8616L21.297 19.5659L22.5341 20.8616L23.509 19.8366L22.272 18.5409L23.509 17.2404L22.5341 16.2155Z" fill="#005BBD"/>
</svg>
