<svg width="30" height="30" viewBox="0 0 30 30" fill="none" xmlns="http://www.w3.org/2000/svg">
<path d="M15.0001 6.32263C10.0982 6.32263 6.1076 10.3132 6.1076 15.2151C6.1076 20.117 10.0982 24.1075 15.0001 24.1075C19.9019 24.1075 23.8925 20.117 23.8925 15.2151C23.8925 10.3132 19.9019 6.32263 15.0001 6.32263ZM15.0001 22.4094C11.0321 22.4094 7.80572 19.183 7.80572 15.2151C7.80572 11.2472 11.0321 8.02074 15.0001 8.02074C18.968 8.02074 22.1944 11.2472 22.1944 15.2151C22.1944 19.183 18.968 22.4094 15.0001 22.4094Z" fill="#005BBD"/>
<path d="M15.8491 0H14.1509V4.13774H15.8491V0Z" fill="#005BBD"/>
<path d="M15.8491 25.8623H14.1509V30H15.8491V25.8623Z" fill="#005BBD"/>
<path d="M30 14.1509H25.8622V15.849H30V14.1509Z" fill="#005BBD"/>
<path d="M4.13774 14.1509H0V15.849H4.13774V14.1509Z" fill="#005BBD"/>
<path d="M23.2797 22.0839L22.079 23.2847L25.0048 26.2105L26.2055 25.0097L23.2797 22.0839Z" fill="#005BBD"/>
<path d="M4.9948 3.79109L3.79407 4.99182L6.71986 7.91761L7.9206 6.71688L4.9948 3.79109Z" fill="#005BBD"/>
<path d="M25.0079 3.79418L22.0822 6.71997L23.2829 7.92071L26.2087 4.99491L25.0079 3.79418Z" fill="#005BBD"/>
<path d="M6.71663 22.0792L3.79083 25.005L4.99157 26.2057L7.91736 23.2799L6.71663 22.0792Z" fill="#005BBD"/>
</svg>
