<svg width="33" height="25" viewBox="0 0 33 25" fill="none" xmlns="http://www.w3.org/2000/svg">
<path d="M33 10.6383H0V0H33V10.6383ZM1.56993 9.04255H31.4301V1.59574H1.56993V9.04255Z" fill="#005BBD"/>
<path d="M5.89247 9.30852H4.32254V24.4681H5.89247V9.30852Z" fill="#005BBD"/>
<path d="M8.27879 23.4043H1.84729V25H8.27879V23.4043Z" fill="#005BBD"/>
<path d="M28.9182 9.30852H27.3482V24.4681H28.9182V9.30852Z" fill="#005BBD"/>
<path d="M31.3045 23.4043H24.873V25H31.3045V23.4043Z" fill="#005BBD"/>
<path d="M24.873 3.7234H8.38867V5.31914H24.873V3.7234Z" fill="#005BBD"/>
<path d="M22.7797 4.52127H10.2203V16.7553H22.7797V4.52127Z" fill="white"/>
<path d="M23.5647 17.5532H9.4353V3.7234H23.5647V17.5532ZM11.0052 15.9574H21.9948V5.31914H11.0052V15.9574Z" fill="#005BBD"/>
</svg>
