<svg width="33" height="27" viewBox="0 0 33 27" fill="none" xmlns="http://www.w3.org/2000/svg">
<path d="M33 22.0454H0V3.22886H33V22.0454ZM1.60871 20.5271H31.3913V4.74713H1.60871V20.5271Z" fill="#005BBD"/>
<path d="M29.5145 6.50331H27.7717V8.02159H29.5145V6.50331Z" fill="#005BBD"/>
<path d="M25.4873 13.0825H7.7915V26.2409H25.4873V13.0825Z" fill="white"/>
<path d="M26.2917 27H6.98718V12.3234H26.2917V27ZM8.59589 25.4818H24.683V13.8416H8.59589V25.4818Z" fill="#005BBD"/>
<path d="M21.1331 17.0401H11.4808V18.5584H21.1331V17.0401Z" fill="#005BBD"/>
<path d="M16.6394 20.1678H11.4808V21.6861H16.6394V20.1678Z" fill="#005BBD"/>
<path d="M26.0236 3.71977H24.4149V1.51828H8.32776V3.71977H6.71906V0H26.0236V3.71977Z" fill="#005BBD"/>
</svg>
