<svg width="27" height="28" viewBox="0 0 27 28" fill="none" xmlns="http://www.w3.org/2000/svg">
<g clip-path="url(#clip0)">
<path d="M20.3398 0.189434C20.9929 0.349831 21.6534 0.484969 22.2978 0.678203C22.8745 0.85123 22.9657 1.32358 22.5394 1.76183C21.5548 2.77347 20.5702 3.7851 19.5795 4.79043C19.4439 4.92809 19.3811 5.05944 19.3946 5.25899C19.4439 5.98519 19.4772 6.7114 19.5105 7.43887C19.5179 7.59927 19.5598 7.67631 19.7372 7.68389C20.4642 7.71167 21.19 7.76472 21.9171 7.78619C22.044 7.78998 22.2067 7.72178 22.2991 7.62958C23.2997 6.62173 24.2879 5.60125 25.2811 4.58583C25.7149 4.14252 26.1462 4.24482 26.3606 4.83968C27.5978 8.27369 26.2682 11.9767 23.1284 13.736C21.524 14.6353 19.8099 14.8234 18.0367 14.3587C17.8469 14.3094 17.7348 14.3448 17.6017 14.4812C13.5008 18.6907 9.40473 22.9077 5.27913 27.0919C4.65931 27.7209 3.79426 27.9002 2.93045 27.7701C0.770302 27.4455 -0.370769 25.32 0.453611 23.2474C0.594089 22.8938 0.792482 22.6134 1.05002 22.3507C5.03391 18.2739 9.01164 14.1932 12.998 10.1189C13.1582 9.95597 13.1902 9.82588 13.12 9.60739C11.8409 5.67324 14.1502 1.39304 18.0786 0.411717C18.4594 0.316994 18.85 0.261424 19.2357 0.188171C19.6029 0.189434 19.9713 0.189434 20.3398 0.189434ZM25.5165 5.98141C25.429 6.06729 25.3649 6.12665 25.3033 6.18853C24.4913 7.02083 23.678 7.85186 22.8671 8.68542C22.702 8.85466 22.527 8.98853 22.272 8.97338C21.2135 8.91149 20.1537 8.86224 19.0952 8.79656C18.6257 8.76751 18.4557 8.59322 18.4273 8.10824C18.3657 7.0764 18.325 6.04455 18.2597 5.01397C18.2388 4.69318 18.3214 4.44311 18.5456 4.21704C19.3577 3.39737 20.1599 2.5676 20.9658 1.74162C21.0299 1.67595 21.0902 1.60648 21.1654 1.52313C18.5333 0.891645 15.9074 2.09146 14.6073 4.49237C13.3566 6.80233 13.7817 9.82588 15.6165 11.6812C17.4834 13.5681 20.4199 13.9962 22.633 12.7017C24.9866 11.3263 26.1523 8.63238 25.5165 5.98141ZM16.6751 13.8964C15.3528 13.2056 14.3929 12.2748 13.6536 11.008C13.5636 11.1242 13.5057 11.2151 13.4318 11.2909C9.60189 15.2188 5.76957 19.1441 1.94218 23.0757C1.77213 23.25 1.62672 23.4596 1.51335 23.6781C1.06358 24.547 1.33468 25.6584 2.12332 26.2495C2.88979 26.8254 4.04811 26.7433 4.70983 26.0651C8.60376 22.0754 12.4965 18.0844 16.3916 14.0972C16.4594 14.0278 16.5518 13.9836 16.6751 13.8964Z" fill="#323232"/>
<path d="M3.44723 28C3.26978 28 3.08741 27.9861 2.90134 27.9583C1.83051 27.7967 0.927261 27.1879 0.425732 26.2862C-0.0868875 25.3667 -0.139875 24.2338 0.280325 23.1767C0.420803 22.8231 0.622893 22.5187 0.917402 22.2181C2.48853 20.6104 4.05843 19.0014 5.62956 17.3936C8.04108 14.9232 10.4526 12.4541 12.8654 9.98629C12.9763 9.87262 12.9898 9.81579 12.9418 9.66928C12.3158 7.74452 12.5129 5.60884 13.4827 3.81164C14.4513 2.0157 16.1099 0.709788 18.0322 0.228597C18.2984 0.16166 18.5707 0.11493 18.8344 0.0694632C18.9564 0.0479928 19.0784 0.0265223 19.2004 0.0037889L19.2337 0L20.3821 0.00505187C20.5793 0.0530447 20.7777 0.0997745 20.9749 0.145241C21.4271 0.250068 21.8941 0.359946 22.3476 0.495083C22.6815 0.594858 22.9021 0.794407 22.9674 1.0571C23.0352 1.32864 22.9292 1.6267 22.6668 1.89571C21.6132 2.97934 20.6631 3.95435 19.7056 4.92558C19.5997 5.03419 19.5664 5.11502 19.575 5.24637C19.6243 5.96752 19.6576 6.69121 19.6908 7.43004C19.6921 7.46035 19.6945 7.4793 19.697 7.4894C19.7056 7.49066 19.7192 7.49319 19.7401 7.49445C20.0618 7.50708 20.3834 7.5235 20.705 7.54118C21.103 7.56265 21.5146 7.58412 21.9188 7.59675C21.9964 7.59675 22.1085 7.55129 22.1652 7.49445C22.8812 6.7733 23.602 6.0332 24.3007 5.31836C24.5829 5.02914 24.8651 4.73992 25.1473 4.45196C25.4726 4.11854 25.756 4.09707 25.9359 4.13748C26.1171 4.1779 26.3685 4.32188 26.5311 4.77402C27.146 6.48029 27.1546 8.32927 26.5558 9.98124C25.9556 11.6383 24.769 13.03 23.2139 13.9015C21.5922 14.8108 19.8338 15.0255 17.9879 14.5418C17.8646 14.5102 17.819 14.5229 17.7291 14.6151L15.6047 16.7962C12.269 20.2214 8.81987 23.764 5.40652 27.2258C4.90745 27.7335 4.22478 28 3.44723 28ZM19.2509 0.37889C19.1326 0.401624 19.0143 0.421831 18.896 0.442039C18.6397 0.486243 18.3736 0.532972 18.1197 0.596121C16.2972 1.05205 14.7248 2.28976 13.8056 3.99351C12.8863 5.69851 12.699 7.72305 13.2917 9.54804C13.3842 9.83347 13.3361 10.0381 13.1254 10.254C10.7114 12.7206 8.30109 15.191 5.88956 17.6613C4.31967 19.2704 2.74854 20.8781 1.17741 22.4859C0.91617 22.7536 0.744886 23.01 0.621661 23.3194C0.24459 24.2679 0.288951 25.2808 0.744886 26.098C1.19712 26.9088 1.98207 27.4367 2.95309 27.5832C3.83785 27.7158 4.61541 27.4936 5.14528 26.9581C8.55863 23.4963 12.0065 19.9549 15.3422 16.5297L17.4666 14.3486C17.6478 14.1629 17.8314 14.1111 18.0791 14.1768C19.8313 14.6365 21.4998 14.4332 23.0364 13.5719C26.1072 11.8504 27.4011 8.2876 26.1836 4.90789C26.1011 4.68056 25.9852 4.53911 25.8558 4.51006C25.7289 4.48101 25.57 4.55679 25.4085 4.72224C25.1263 5.01019 24.8442 5.29941 24.5632 5.58863C23.8645 6.30474 23.1424 7.04484 22.4265 7.76725C22.2983 7.89734 22.0888 7.98701 21.9101 7.97817C21.5023 7.9668 21.0882 7.94407 20.6877 7.9226C20.3674 7.90618 20.0482 7.8885 19.7278 7.87587C19.3421 7.86071 19.3273 7.55255 19.3236 7.45025C19.2904 6.71268 19.2571 5.99278 19.2078 5.27415C19.1918 5.03166 19.2657 4.84222 19.4469 4.65783C20.4031 3.68787 21.3519 2.71286 22.4055 1.63049C22.5694 1.46252 22.6433 1.28823 22.6101 1.15435C22.578 1.02679 22.4486 0.92323 22.2441 0.862607C21.8005 0.729996 21.3396 0.622643 20.8923 0.517817C20.7013 0.471087 20.5091 0.42562 20.3168 0.37889H19.2509ZM3.30429 26.8191C2.84589 26.8191 2.38625 26.6827 2.01288 26.4023C1.14291 25.7494 0.857022 24.5395 1.34992 23.5885C1.47562 23.346 1.63458 23.1224 1.81079 22.9418C4.49341 20.1848 7.17974 17.4315 9.86606 14.6782L13.3004 11.1571C13.3398 11.1166 13.3768 11.0674 13.4224 11.0042C13.4482 10.9689 13.4766 10.931 13.5086 10.8906L13.675 10.6771L13.8117 10.912C14.5437 12.1649 15.4802 13.0604 16.7593 13.7297L17.0378 13.875L16.779 14.0543C16.7334 14.0859 16.6915 14.1124 16.6546 14.1364C16.5967 14.173 16.5523 14.2021 16.5227 14.2311C13.0823 17.7535 9.64425 21.2772 6.20502 24.8009L4.83968 26.2003C4.44043 26.6082 3.87359 26.8191 3.30429 26.8191ZM13.6368 11.3402C13.6134 11.3692 13.5887 11.3983 13.5628 11.4248L10.1285 14.946C7.44221 17.6992 4.75712 20.4525 2.07326 23.2096C1.92292 23.3636 1.78614 23.5569 1.67771 23.7665C1.27106 24.5521 1.51012 25.5536 2.23345 26.0967C2.92845 26.6183 3.98079 26.5438 4.57967 25.9313L5.94501 24.5319C9.38301 21.0082 12.8222 17.4845 16.2627 13.9621C16.28 13.9444 16.2972 13.9293 16.3157 13.9141C15.1882 13.2738 14.3281 12.4466 13.6368 11.3402ZM19.8461 13.6325C18.2602 13.6325 16.662 13.006 15.4864 11.8176C13.5936 9.90293 13.155 6.78466 14.4451 4.40271C15.7871 1.92224 18.5042 0.693369 21.2065 1.34001L21.5171 1.41452L21.2299 1.73027C21.1831 1.78331 21.14 1.83004 21.0956 1.87677L20.5029 2.48552C19.9053 3.09932 19.2879 3.7346 18.6742 4.35345C18.4943 4.53406 18.4253 4.72855 18.4426 5.00262C18.4783 5.56716 18.5066 6.14055 18.535 6.69499C18.5584 7.16355 18.5818 7.63085 18.6102 8.09815C18.6336 8.48588 18.7297 8.58566 19.1043 8.60839C19.7069 8.64502 20.3107 8.67785 20.9145 8.70943C21.3704 8.73342 21.8251 8.75742 22.2811 8.78394C22.4597 8.79531 22.5867 8.70185 22.7345 8.55029C23.5466 7.71673 24.3586 6.8857 25.1719 6.05341C25.2138 6.01047 25.257 5.96879 25.3087 5.91953L25.6192 5.61768L25.6956 5.93469C26.3487 8.65891 25.1547 11.4438 22.7234 12.8659C21.8424 13.3824 20.8467 13.6325 19.8461 13.6325ZM19.7722 1.54714C17.7143 1.54714 15.8043 2.66991 14.7667 4.58457C13.5554 6.82129 13.967 9.74885 15.7439 11.5461C17.5467 13.3685 20.4043 13.7853 22.5386 12.5375C24.7271 11.2581 25.8509 8.80415 25.4036 6.35147C24.6002 7.17366 23.798 7.99585 22.9958 8.81931C22.8196 8.99991 22.5965 9.18052 22.2601 9.16283C21.8054 9.13631 21.3495 9.11231 20.8948 9.08832C20.2897 9.05548 19.6859 9.02391 19.0821 8.98602C18.519 8.95192 18.275 8.70059 18.2405 8.12088C18.2121 7.65232 18.1887 7.1825 18.1653 6.71394C18.137 6.16076 18.1086 5.58863 18.0729 5.02661C18.0483 4.64141 18.1567 4.34208 18.4142 4.08191C19.0267 3.46432 19.644 2.82905 20.2404 2.21651L20.8011 1.6406C20.4573 1.57871 20.1123 1.54714 19.7722 1.54714Z" fill="#323232"/>
<path d="M4.88748 23.9086C4.89157 24.4359 4.48182 24.8667 3.96822 24.8743C3.46279 24.8818 3.0326 24.4476 3.02933 23.9262C3.02524 23.4023 3.43825 22.9698 3.95104 22.9606C4.45729 22.9522 4.88339 23.383 4.88748 23.9086ZM3.96004 24.1827C4.04673 24.062 4.12524 23.9983 4.13669 23.9237C4.15387 23.8114 4.07617 23.7343 3.9584 23.7334C3.839 23.7326 3.76539 23.8147 3.78175 23.9245C3.7932 23.9991 3.87335 24.062 3.96004 24.1827Z" fill="#323232"/>
<path d="M3.95427 25C3.68438 25 3.42676 24.891 3.2272 24.6915C3.02192 24.4862 2.90824 24.2146 2.90579 23.9279C2.9017 23.3361 3.36951 22.8457 3.94773 22.8357C4.22579 22.8315 4.48751 22.9396 4.6887 23.1408C4.89316 23.3453 5.00684 23.6178 5.00929 23.9069C5.0142 24.5004 4.54721 24.9908 3.96899 25C3.9649 25 3.95999 25 3.95427 25ZM3.96572 23.0863C3.96163 23.0863 3.95672 23.0863 3.95263 23.0863C3.50772 23.0939 3.14869 23.4702 3.15196 23.9254C3.1536 24.145 3.24111 24.3529 3.39895 24.5113C3.55189 24.6647 3.74899 24.7485 3.95427 24.7485C3.95836 24.7485 3.96245 24.7485 3.96654 24.7485C4.41063 24.7418 4.76884 24.3646 4.76557 23.9095C4.76394 23.6873 4.67643 23.4786 4.51858 23.321C4.36728 23.1693 4.171 23.0863 3.96572 23.0863ZM3.96081 24.3948L3.86185 24.2573C3.83405 24.2188 3.80624 24.1861 3.78252 24.1576C3.72691 24.0914 3.67375 24.0285 3.66148 23.9447C3.64839 23.8567 3.66966 23.7737 3.72282 23.7108C3.77843 23.6446 3.86185 23.6085 3.95836 23.6085C3.95918 23.6085 3.95999 23.6085 3.96081 23.6085C4.05895 23.6094 4.14401 23.6463 4.19962 23.7142C4.25115 23.7762 4.27241 23.8583 4.25933 23.9447C4.24624 24.0285 4.19717 24.088 4.1391 24.1576C4.11538 24.1861 4.0884 24.2188 4.06059 24.2582L3.96081 24.3948ZM3.95754 23.8592C3.93055 23.8592 3.91419 23.8667 3.90847 23.8743C3.90193 23.8818 3.90193 23.8952 3.90356 23.9053C3.90683 23.9187 3.93546 23.9539 3.95999 23.9832C3.98453 23.953 4.01315 23.9178 4.01643 23.9044C4.01806 23.891 4.01724 23.8818 4.01234 23.8759C4.00498 23.8676 3.9878 23.8592 3.95754 23.8592Z" fill="#323232"/>
</g>
<defs>
<clipPath id="clip0">
<rect width="27" height="28" fill="white"/>
</clipPath>
</defs>
</svg>
