<svg width="25" height="26" viewBox="0 0 25 26" fill="none" xmlns="http://www.w3.org/2000/svg">
<g clip-path="url(#clip0)">
<path d="M3.77863 25.9856C3.77863 25.8951 3.77863 25.8046 3.77863 25.7141C3.76418 23.5745 3.74792 21.4349 3.73347 19.2953C3.72985 18.8234 3.72805 18.834 3.25829 18.8074C2.81383 18.7826 2.36756 18.7471 1.92491 18.685C0.998046 18.5573 0.0639565 17.6365 0.0729902 16.556C0.0856375 14.8564 0.0187877 13.1568 0.009754 11.4554C-0.00289325 8.8208 0.002527 6.1862 0.0061405 3.55161C0.0061405 3.10452 0.0440822 2.65744 0.045889 2.21213C0.0476957 1.7686 0.195849 1.38361 0.488543 1.05185C0.647537 0.870884 0.817371 0.698793 0.989012 0.53025C1.31061 0.218001 1.68822 0.0778444 2.15256 0.0760703C7.09583 0.0565548 12.0391 0.0139754 16.9806 -0.000217662C18.9065 -0.00554008 20.8325 0.0547806 22.7603 0.0671996C23.2283 0.0707479 23.6186 0.209131 23.9582 0.50896C24.0847 0.620731 24.2112 0.734276 24.3304 0.854917C24.699 1.22749 24.9212 1.65151 24.9248 2.19617C24.9411 4.78996 24.9971 7.38375 25.0007 9.97931C25.0025 12.142 24.9357 14.3047 24.9284 16.4691C24.9248 17.4023 24.428 18.0126 23.6854 18.4721C23.4559 18.614 23.156 18.7116 22.8868 18.7152C20.3519 18.7631 17.8153 18.795 15.2786 18.8127C13.311 18.8269 11.3435 18.8127 9.37594 18.8216C9.27838 18.8216 9.14829 18.8979 9.08686 18.9795C7.39213 21.2433 5.70282 23.5124 4.01351 25.7798C3.9575 25.8561 3.89788 25.9288 3.84006 26.0016C3.82019 25.9945 3.79851 25.9909 3.77863 25.9856ZM5.41736 20.9985C5.44446 21.0038 5.47337 21.0109 5.50047 21.0162C5.54022 20.9683 5.58177 20.924 5.61791 20.8743C6.49599 19.6945 7.37407 18.5165 8.24673 17.3331C8.33345 17.216 8.42198 17.1717 8.56833 17.1734C9.16997 17.1805 9.77162 17.1752 10.3733 17.1752C14.4547 17.1752 18.5362 17.177 22.6176 17.177C22.9031 17.177 23.3241 16.7636 23.3259 16.4833C23.3277 15.7736 23.3277 15.0622 23.3277 14.3526C23.3277 10.3448 23.3277 6.33701 23.3277 2.32923C23.3277 2.03117 22.9121 1.62134 22.6122 1.62134C22.296 1.61957 21.978 1.62312 21.6618 1.62312C15.2388 1.62312 8.81766 1.62312 2.39466 1.62312C2.05861 1.62312 1.65028 2.02407 1.65028 2.35229C1.65028 7.00586 1.65028 11.6612 1.65209 16.3148C1.65209 16.792 1.93214 17.1113 2.42357 17.1362C3.05593 17.1681 3.6901 17.1646 4.32427 17.1734C4.67298 17.177 5.01987 17.1734 5.41916 17.1734C5.41736 18.465 5.41736 19.7318 5.41736 20.9985Z" fill="#323232"/>
<path d="M8.43025 8.86363C8.43206 9.78618 7.70394 10.5313 6.8096 10.5225C5.88635 10.5118 5.20159 9.78441 5.19436 8.80508C5.18894 8.02446 5.98753 7.25804 6.8114 7.25271C7.68226 7.24739 8.42845 7.98898 8.43025 8.86363Z" fill="#323232"/>
<path d="M19.4262 8.90265C19.4696 9.7365 18.7848 10.4887 17.7694 10.4852C16.7558 10.4834 16.1668 9.5715 16.1813 8.88491C16.2012 7.97301 16.9166 7.27045 17.8525 7.27045C18.736 7.27045 19.428 7.98897 19.4262 8.90265Z" fill="#323232"/>
<path d="M10.6833 8.87603C10.6905 7.99251 11.4222 7.27399 12.3166 7.27576C13.2218 7.27753 13.9589 8.00848 13.9499 8.8991C13.9427 9.78439 13.1874 10.51 12.2877 10.4994C11.3879 10.4869 10.6761 9.76842 10.6833 8.87603Z" fill="#323232"/>
</g>
<defs>
<clipPath id="clip0">
<rect width="25" height="26" fill="white"/>
</clipPath>
</defs>
</svg>
