<svg width="32" height="24" viewBox="0 0 32 24" fill="none" xmlns="http://www.w3.org/2000/svg">
<g clip-path="url(#clip0)">
<path d="M31.3068 7.94442C30.7836 7.78897 30.6854 7.47198 30.6914 6.98277C30.7111 5.10368 30.702 3.22306 30.696 1.34244C30.6914 0.216198 30.4858 0.0119817 29.3684 0.0119817C25.7638 0.0104577 22.1592 0.0119817 18.5546 0.0104577C14.9258 0.0104577 11.297 0.0226498 7.66666 -0.000210281C7.05884 -0.00325829 6.62338 0.199434 6.20607 0.626155C4.61696 2.25836 3.02028 3.88295 1.39488 5.47706C-0.418007 7.25557 -0.476975 9.67416 1.30265 11.4832C2.95376 13.1611 4.61242 14.8299 6.27713 16.4941C6.48579 16.7029 6.73376 16.9117 7.00289 17.0122C13.0403 19.2678 19.0838 21.505 25.1257 23.7499C26.3474 24.204 26.5576 24.1156 27.0142 22.8583C27.6538 21.0966 28.2752 19.3272 28.933 17.5716C29.0131 17.3567 29.2444 17.0854 29.4455 17.0473C30.6476 16.8141 30.77 16.7684 30.6914 15.5385C30.5629 13.5451 30.8517 11.6477 31.6863 9.83419C31.771 9.65131 31.8103 9.44709 31.8859 9.25964C32.1505 8.61346 31.96 8.13949 31.3068 7.94442ZM25.4614 22.0156C21.1129 20.391 16.8445 18.7953 12.5761 17.2012C12.5852 17.1601 12.5958 17.1174 12.6049 17.0763C17.4418 17.0763 22.2786 17.0763 27.2168 17.0763C26.6287 18.7313 26.0571 20.3376 25.4614 22.0156ZM28.9435 15.2033C28.6442 15.217 28.375 15.2383 28.1059 15.2383C21.503 15.2398 14.9001 15.2337 8.29717 15.2505C7.77855 15.252 7.40206 15.1133 7.03767 14.7369C5.57708 13.2281 4.08171 11.7529 2.60902 10.2548C1.4599 9.0859 1.4599 7.9048 2.61658 6.73436C4.12858 5.20426 5.64512 3.68026 7.18433 2.17912C7.39299 1.9749 7.74377 1.80878 8.02803 1.80878C14.832 1.78897 21.6376 1.79354 28.4416 1.79507C28.5897 1.79507 28.7364 1.8225 28.9435 1.84231C28.9435 6.28783 28.9435 10.7135 28.9435 15.2033Z" fill="#323232"/>
<path d="M23.5145 3.69725C23.1864 3.36654 22.6557 3.36654 22.3291 3.69725L14.0388 12.0518C13.7107 12.3825 13.7107 12.9175 14.0388 13.2467C14.2021 13.4112 14.4168 13.4935 14.6315 13.4935C14.8462 13.4935 15.0609 13.4112 15.2242 13.2467L23.513 4.89207C23.8411 4.56136 23.8411 4.02643 23.5145 3.69725Z" fill="#323232"/>
<path d="M15.9251 5.53805C16.4117 5.04764 16.4117 4.25253 15.9251 3.76212C15.4386 3.27172 14.6497 3.27172 14.1632 3.76212C13.6766 4.25253 13.6767 5.04764 14.1632 5.53805C14.6497 6.02845 15.4386 6.02845 15.9251 5.53805Z" fill="#323232"/>
<path d="M23.0299 13.4878C23.7091 13.3767 24.1703 12.7316 24.0601 12.047C23.9499 11.3624 23.3099 10.8975 22.6307 11.0086C21.9515 11.1197 21.4902 11.7648 21.6005 12.4494C21.7107 13.134 22.3507 13.5989 23.0299 13.4878Z" fill="#323232"/>
</g>
<defs>
<clipPath id="clip0">
<rect width="32" height="24" fill="white"/>
</clipPath>
</defs>
</svg>
