<svg width="34" height="26" viewBox="0 0 34 26" fill="none" xmlns="http://www.w3.org/2000/svg">
<g clip-path="url(#clip0)">
<path d="M-0.000511672 1.61579C0.20597 1.26353 0.368068 0.874899 0.630512 0.570503C1.00488 0.134011 1.54521 0 2.11641 0C6.63006 0 11.1437 0 15.6574 0C16.545 0 17.4308 0 18.3185 0C19.6616 0 20.5203 0.844268 20.5241 2.17863C20.528 3.12245 20.5241 4.06435 20.5241 4.92968C22.6912 4.92968 24.8255 4.92585 26.9598 4.9316C27.8321 4.93351 28.5769 5.30108 29.1462 5.9137C29.8602 6.68139 30.497 7.51992 31.1454 8.34504C31.6915 9.03807 32.2183 9.74641 32.7336 10.4624C33.5383 11.5824 34.0323 12.7885 33.9956 14.2128C33.9435 16.1923 33.986 18.1719 33.984 20.1533C33.984 21.5547 33.0443 22.5023 31.6298 22.4813C31.2284 22.4755 31.0624 22.5655 30.9505 22.9809C30.4565 24.7882 28.7139 26.0383 26.8267 25.9981C24.9046 25.9579 23.2451 24.6503 22.7935 22.8029C22.7395 22.5789 22.6681 22.4793 22.4134 22.4813C19.5033 22.4908 16.5952 22.4889 13.6852 22.4908C13.5964 22.4908 13.5057 22.5042 13.4111 22.5119C13.3166 22.8048 13.2433 23.0939 13.1333 23.3676C12.4694 25.0141 10.7674 26.0881 8.99012 25.9923C7.14337 25.8928 5.58221 24.6484 5.10943 22.8565C5.02838 22.5502 4.91259 22.4679 4.61348 22.4793C3.96123 22.5004 3.30898 22.4813 2.65673 22.487C1.10716 22.5004 0.553322 22.1347 -0.00244141 20.7238C-0.000511672 14.3564 -0.000511672 7.98704 -0.000511672 1.61579ZM19.1116 21.0741C19.1116 20.9306 19.1116 20.831 19.1116 20.7295C19.1116 14.6206 19.1097 8.5116 19.1077 2.40454C19.1077 1.6177 18.907 1.41094 18.1178 1.41094C12.8091 1.40903 7.49844 1.41094 2.18974 1.41477C1.58573 1.41477 1.41784 1.58324 1.41784 2.1748C1.41591 8.1804 1.41591 14.1841 1.41784 20.1897C1.41784 20.8195 1.6552 21.0665 2.28236 21.0741C3.06584 21.0837 3.84738 21.0703 4.63085 21.0875C4.90873 21.0933 5.02838 21.0263 5.10171 20.7315C5.65168 18.5299 7.90754 17.1534 10.1248 17.6741C11.794 18.0646 12.8496 19.1176 13.3147 20.7506C13.3668 20.9325 13.3938 21.0818 13.6504 21.0818C15.4509 21.0703 17.2513 21.0741 19.1116 21.0741ZM20.5261 21.078C21.1397 21.078 21.7225 21.0627 22.3053 21.0837C22.5967 21.0933 22.7279 21.0359 22.807 20.7181C23.3049 18.6907 25.2964 17.3467 27.3728 17.6014C29.208 17.8253 30.5318 18.9874 31.0258 20.7985C31.0528 20.898 31.1165 21.0378 31.1956 21.0665C31.9134 21.3249 32.5657 20.8693 32.5676 20.1188C32.5696 18.4629 32.5676 16.8069 32.5676 15.149C32.5676 15.0264 32.5676 14.902 32.5676 14.7527C32.365 14.7527 32.2241 14.7527 32.0813 14.7527C30.2037 14.7527 28.3222 14.6991 26.4465 14.7718C25.2462 14.8178 24.0247 13.8299 24.0575 12.4573C24.0961 10.8664 24.0671 9.27354 24.0671 7.68264C24.0671 7.24807 24.0671 6.81157 24.0671 6.34062C23.1717 6.34062 22.3265 6.34062 21.4813 6.34062C20.8233 6.34062 20.5261 6.63162 20.5261 7.28636C20.5261 10.5084 20.5261 13.7304 20.5261 16.9524C20.5261 18.3078 20.5261 19.6651 20.5261 21.078ZM25.5106 6.39806C25.5029 6.48995 25.4855 6.6029 25.4855 6.71585C25.4855 8.61881 25.4836 10.5218 25.4913 12.4247C25.4932 13.068 25.7827 13.3456 26.4272 13.3475C28.3203 13.3513 30.2114 13.3494 32.1045 13.3475C32.2183 13.3475 32.3322 13.3341 32.4557 13.3264C32.3978 12.6372 32.1334 12.0457 31.7475 11.5192C30.7652 10.181 29.7599 8.85811 28.7545 7.53523C27.9382 6.46123 26.844 6.12429 25.5106 6.39806ZM6.37726 21.7825C6.37919 23.3657 7.62387 24.6044 9.19853 24.5891C10.8079 24.5737 12.0295 23.3734 12.041 21.794C12.0526 20.2222 10.8079 18.9702 9.22941 18.9683C7.60071 18.9683 6.37533 20.1763 6.37726 21.7825ZM26.9405 18.974C25.3446 18.9453 24.1173 20.1265 24.0768 21.7327C24.0363 23.3026 25.2423 24.5469 26.8479 24.591C28.4361 24.635 29.7193 23.4002 29.7406 21.8055C29.7579 20.2318 28.5461 19.0046 26.9405 18.974Z" fill="#323232"/>
</g>
<defs>
<clipPath id="clip0">
<rect width="34" height="26" fill="white"/>
</clipPath>
</defs>
</svg>
