<svg width="31" height="26" viewBox="0 0 31 26" fill="none" xmlns="http://www.w3.org/2000/svg">
<g clip-path="url(#clip0)">
<path d="M11.9718 20.1432C10.3913 20.1432 8.84506 20.1449 7.29883 20.1432C5.67897 20.1416 4.05739 20.1531 2.43753 20.125C1.22691 20.1036 0.0488322 18.9682 0.0351335 17.7982C0.00773628 15.5838 0.0162979 13.3693 0.0145856 11.1549C0.00944861 8.38349 0.0419829 5.61046 -0.000825357 2.83909C-0.0230856 1.36169 0.898147 0.398233 1.88787 0.128863C2.19609 0.0445813 2.52657 0.00657205 2.84849 0.00657205C7.54198 -3.82617e-05 12.2372 0.00491947 16.9307 0.00657205C20.7098 0.00657205 24.4872 0.0164875 28.2663 -3.82618e-05C29.5026 -0.00499599 30.7029 0.799809 30.9427 2.12518C31.0334 2.62921 30.9889 3.15804 30.9889 3.67529C30.9923 7.7175 30.9906 11.7614 30.9906 15.8036C30.9906 16.3919 30.9872 16.9818 30.9906 17.5702C30.9975 18.9947 29.7526 20.1498 28.3262 20.1449C25.4221 20.1366 22.5163 20.1432 19.6122 20.1449C19.4255 20.1449 19.2389 20.1449 18.9564 20.1449C19.1499 20.7101 19.2851 21.2405 19.5077 21.733C20.0197 22.8683 20.8177 23.802 21.8108 24.5804C21.9067 24.6548 22.054 24.6944 22.1807 24.6994C22.6327 24.7126 23.0865 24.7027 23.5386 24.706C23.9769 24.7093 24.268 24.9803 24.2663 25.3753C24.2646 25.6694 23.9598 26.0049 23.5574 26.0016C21.5471 25.99 19.5368 26 17.5266 26C14.2115 26.0016 10.8964 26.0033 7.58136 25.9933C7.38445 25.9933 7.16013 25.9421 6.99917 25.8413C6.74917 25.6827 6.6841 25.4232 6.78684 25.1406C6.88958 24.8613 7.1002 24.7143 7.40157 24.7076C7.87589 24.6994 8.34849 24.7126 8.8228 24.701C8.93753 24.6977 9.07452 24.663 9.16184 24.5953C10.5934 23.4914 11.566 22.0999 11.9632 20.3581C11.9701 20.2969 11.9666 20.2358 11.9718 20.1432ZM29.6481 14.9393C29.6481 14.817 29.6481 14.7261 29.6481 14.6368C29.6481 10.6459 29.6481 6.65489 29.6481 2.66392C29.6481 1.85085 29.0694 1.29724 28.2218 1.29724C19.7509 1.29724 11.28 1.29724 2.80911 1.29724C1.91869 1.29724 1.35534 1.83928 1.35534 2.69862C1.35534 6.66976 1.35534 10.6409 1.35534 14.6121C1.35534 14.7195 1.35534 14.8269 1.35534 14.9409C10.8005 14.9393 20.2046 14.9393 29.6481 14.9393ZM1.35363 16.2564C1.35363 16.7092 1.3502 17.1256 1.35363 17.5421C1.36048 18.2824 1.94609 18.8509 2.71664 18.8509C11.2423 18.8526 19.768 18.8526 28.2937 18.8509C28.9136 18.8509 29.4581 18.4989 29.5694 17.9189C29.6721 17.3818 29.6447 16.8215 29.6738 16.258C20.1995 16.2564 10.7954 16.2564 1.35363 16.2564ZM11.0831 24.6762C14.0454 24.6762 16.9649 24.6762 19.9153 24.6762C18.7098 23.4137 17.9324 21.9875 17.6379 20.3234C17.6259 20.2523 17.4992 20.1498 17.4238 20.1482C16.1413 20.1383 14.8588 20.1366 13.5745 20.1482C13.4992 20.1482 13.3725 20.2523 13.3605 20.3217C13.0625 21.9842 12.2903 23.412 11.0831 24.6762Z" fill="#323232"/>
<path d="M15.5069 18.1899C15.137 18.1916 14.8322 17.9173 14.8237 17.5768C14.8151 17.1934 15.1165 16.896 15.5103 16.9009C15.887 16.9059 16.1764 17.1934 16.1781 17.5653C16.1798 17.9074 15.8767 18.1883 15.5069 18.1899Z" fill="#323232"/>
</g>
<defs>
<clipPath id="clip0">
<rect width="31" height="26" fill="white"/>
</clipPath>
</defs>
</svg>
