<svg width="25" height="23" viewBox="0 0 25 23" fill="none" xmlns="http://www.w3.org/2000/svg">
<g clip-path="url(#clip0)">
<path d="M20.704 3.28984C15.4691 3.28984 10.0559 3.28903 4.73145 3.29791C4.72981 3.29791 4.72899 3.29791 4.72735 3.29791C4.49817 3.29791 4.48092 3.26722 4.43328 3.10894C4.31499 2.7213 4.1696 2.34012 4.02914 1.97186C3.97821 1.83861 3.92728 1.70455 3.87717 1.5713C3.625 0.896155 3.23646 0.441485 2.68775 0.181443C2.07169 -0.110902 1.33076 -0.0471033 0.753303 0.346998C0.230057 0.704758 -0.0492268 1.26522 0.00580855 1.84668C0.0329155 2.1366 0.340128 2.47741 0.637483 2.54767C0.899517 2.61066 1.10652 2.41764 1.27244 2.2634C1.30694 2.2319 1.3398 2.2004 1.37183 2.17456C1.47533 2.08896 1.49916 1.97509 1.50573 1.90564C1.53694 1.86203 1.56569 1.81761 1.59444 1.774C1.64126 1.70212 1.71765 1.58502 1.76037 1.55272C1.8458 1.53818 2.03719 1.58906 2.22694 1.70293C2.24829 1.71585 2.3099 1.77481 2.40765 2.0405C3.16747 4.08692 3.924 6.13415 4.68135 8.18137C5.27442 9.78524 5.86748 11.3891 6.46219 12.993C6.46794 13.0075 6.47123 13.0196 6.47451 13.0293C6.46958 13.0333 6.46301 13.0374 6.45562 13.0422C5.09206 13.937 4.54663 15.3366 4.9976 16.7862C5.43788 18.2011 6.72094 19.0797 8.34654 19.0797C12.8364 19.0805 17.3263 19.0805 21.817 19.0805C21.8392 19.0805 21.8639 19.0838 21.8885 19.0854C21.9279 19.0894 21.9731 19.0935 22.0224 19.0935C22.1218 19.0935 22.2343 19.0765 22.3362 19.0014C22.5276 18.8601 22.8175 18.6461 22.8208 18.344C22.8249 18.0323 22.5227 17.7787 22.3419 17.656C22.1777 17.5437 21.9863 17.559 21.8466 17.5695C21.8146 17.572 21.7826 17.5752 21.753 17.5752C19.0809 17.5744 16.4088 17.5744 13.7367 17.5744H11.7324C11.3792 17.5736 11.0236 17.5752 10.6687 17.576C9.84645 17.5776 8.9971 17.5792 8.16254 17.5712C7.35754 17.5639 6.6889 17.0866 6.46055 16.3557C6.29051 15.8114 6.38334 15.2445 6.71683 14.8011C7.06183 14.3408 7.61301 14.0767 8.22743 14.0759C11.1533 14.0719 14.1285 14.0727 17.006 14.0727C18.6932 14.0727 20.3804 14.0735 22.0668 14.0727C23.2603 14.0727 23.9256 13.4694 24.0448 12.2807C24.1778 10.9546 24.3249 9.60676 24.4661 8.30332C24.5343 7.67744 24.6025 7.05076 24.6699 6.42488C24.7356 5.8095 24.7996 5.19412 24.8662 4.56178L24.9992 3.29064L20.704 3.28984ZM5.18488 4.82263H23.2931C23.2841 4.91389 23.2759 5.00514 23.2669 5.0964C23.2233 5.54703 23.1831 5.97182 23.1363 6.40388C23.0385 7.31645 22.9391 8.22821 22.8397 9.14078C22.7297 10.1527 22.6196 11.1654 22.5112 12.1773C22.4717 12.5431 22.4479 12.5649 22.0791 12.5649C20.8995 12.5649 19.7191 12.5649 18.5396 12.5649C15.2473 12.5641 11.8425 12.5633 8.49357 12.5762C8.49111 12.5762 8.48864 12.5762 8.487 12.5762C8.19047 12.5762 8.08861 12.4995 7.97279 12.1902C7.38794 10.6292 6.78665 9.04468 6.20509 7.51269C5.98412 6.93043 5.76316 6.34816 5.5422 5.76589C5.43295 5.47758 5.32452 5.18927 5.2087 4.88239L5.18488 4.82263Z" fill="#323232"/>
<path d="M20.9299 19.1405C20.3984 19.13 19.9023 19.3247 19.5285 19.6824C19.1548 20.041 18.947 20.5255 18.9429 21.0472C18.9388 21.5738 19.1433 22.0688 19.5195 22.4395C19.8859 22.8005 20.3697 22.9992 20.8831 22.9992C20.8864 22.9992 20.8888 22.9992 20.8921 22.9992C21.9797 22.9943 22.8627 22.1246 22.8602 21.061C22.8586 20.0192 21.992 19.1575 20.9299 19.1405ZM20.8954 20.6354C20.8962 20.6354 20.897 20.6354 20.8987 20.6354C21.1155 20.637 21.3299 20.8486 21.3307 21.0626C21.3316 21.2863 21.1336 21.4882 20.9061 21.4947C20.7985 21.4971 20.6868 21.451 20.6013 21.3679C20.5134 21.2823 20.4641 21.1692 20.4658 21.0586C20.4691 20.8437 20.681 20.6354 20.8954 20.6354Z" fill="#323232"/>
<path d="M8.76214 19.1406C8.75721 19.1406 8.75229 19.1406 8.74818 19.1406C8.22493 19.1406 7.73701 19.3361 7.37147 19.693C7.00019 20.0548 6.79566 20.5434 6.79566 21.0683C6.79484 21.5876 6.99773 22.0722 7.36572 22.434C7.73454 22.7957 8.22904 22.9944 8.75886 22.9944C8.7605 22.9944 8.76296 22.9944 8.76461 22.9944C9.28785 22.9928 9.78071 22.7885 10.1512 22.4186C10.5233 22.0479 10.7245 21.5585 10.718 21.0409C10.7048 19.9999 9.82753 19.1479 8.76214 19.1406ZM8.45329 21.3704C8.36868 21.2856 8.32432 21.1717 8.32761 21.0481C8.3309 20.9407 8.38182 20.8333 8.46807 20.7534C8.54775 20.6791 8.64961 20.6379 8.74818 20.6379C8.75146 20.6379 8.75557 20.6379 8.75886 20.6379C8.98146 20.6452 9.18846 20.8543 9.18518 21.0691C9.18189 21.2912 8.97571 21.4939 8.75393 21.4947C8.63647 21.4955 8.53297 21.4503 8.45329 21.3704Z" fill="#323232"/>
</g>
<defs>
<clipPath id="clip0">
<rect width="25" height="23" fill="white"/>
</clipPath>
</defs>
</svg>
