<svg width="27" height="23" viewBox="0 0 27 23" fill="none" xmlns="http://www.w3.org/2000/svg">
<g clip-path="url(#clip0)">
<path d="M4.26916 2.45472C3.9445 2.2638 3.76822 2.02304 3.77979 1.67097C3.79272 1.2943 3.99351 1.00436 4.33723 0.904693C4.72655 0.791434 5.10294 0.910517 5.34865 1.19334C5.42896 1.28589 5.56917 1.38815 5.68216 1.38815C7.97316 1.39915 10.2642 1.39656 12.5559 1.39527C12.6103 1.39527 12.6648 1.38426 12.7641 1.37326C12.7641 1.15257 12.7587 0.940288 12.7655 0.728656C12.7784 0.309921 13.0949 0.0037977 13.5115 -8.54637e-05C13.9267 -0.00396863 14.254 0.301507 14.2697 0.716359C14.2779 0.929286 14.2711 1.14286 14.2711 1.37391C14.4065 1.38297 14.5045 1.39591 14.6032 1.39591C16.8261 1.39721 19.0498 1.3998 21.2727 1.39009C21.4048 1.38944 21.5865 1.32343 21.658 1.22829C21.9064 0.898221 22.2399 0.830912 22.619 0.891749C22.9382 0.94223 23.1587 1.14092 23.2275 1.43539C23.3105 1.78941 23.2561 2.1253 22.9103 2.35894C22.8654 2.38936 22.8218 2.42172 22.7633 2.46314C23.1812 3.62162 23.5944 4.77168 24.0116 5.9211C24.684 7.77466 25.364 9.62564 26.0256 11.4824C26.1161 11.7368 26.2298 11.8403 26.5218 11.8345C26.6817 11.8313 26.9145 11.9225 26.9853 12.041C27.0418 12.1348 26.9444 12.3697 26.8423 12.4824C24.5683 14.9941 20.2382 14.9915 17.958 12.4759C17.8566 12.3646 17.7722 12.1426 17.8233 12.0306C17.873 11.9212 18.1125 11.8209 18.2568 11.8339C18.591 11.8636 18.6992 11.72 18.7966 11.4494C19.8271 8.57395 20.8711 5.70235 21.9111 2.8301C22.067 2.40036 21.8342 2.09035 21.3496 2.08971C19.6821 2.08776 18.0152 2.08906 16.3477 2.08906C15.6698 2.08906 14.9925 2.08906 14.2942 2.08906C14.2942 8.21605 14.2942 14.3049 14.2942 20.4377C14.7693 20.4772 15.2498 20.5069 15.7283 20.5587C17.8199 20.7865 19.8277 21.2777 21.6566 22.3068C21.8131 22.3948 21.9186 22.5663 22.048 22.6983C21.8608 22.7954 21.6777 22.9002 21.4851 22.985C21.4191 23.0142 21.3285 22.9928 21.2489 22.9928C16.0992 22.9928 10.9496 22.9934 5.80059 22.9915C5.65425 22.9915 5.4943 23.0012 5.36498 22.9501C5.22273 22.8938 5.10974 22.7721 4.98383 22.6789C5.07163 22.5767 5.13765 22.4291 5.25132 22.3793C6.16404 21.9774 7.06452 21.536 8.0106 21.2188C9.38411 20.7574 10.823 20.5561 12.2788 20.483C12.4245 20.4759 12.5702 20.4584 12.7389 20.4435C12.7389 14.3295 12.7389 8.23288 12.7389 2.08906C12.5981 2.08906 12.466 2.08906 12.3347 2.08906C10.2363 2.08906 8.13788 2.09682 6.03949 2.08323C5.63519 2.08065 5.27786 2.10912 5.01037 2.51491C5.17508 2.96924 5.35886 3.47535 5.54195 3.98146C6.44991 6.48739 7.36196 8.99139 8.25903 11.5006C8.34615 11.7446 8.45097 11.8436 8.73207 11.8352C8.8961 11.8306 9.17448 11.9187 9.20511 12.019C9.24799 12.1607 9.15746 12.3937 9.04108 12.516C6.7174 14.9663 2.62816 14.987 0.264324 12.5697C0.202386 12.5063 0.138407 12.4442 0.0873596 12.373C-0.101856 12.1096 0.0342703 11.8041 0.365738 11.8365C0.821081 11.8811 0.949721 11.6662 1.077 11.3122C2.10407 8.43415 3.15157 5.56449 4.19293 2.69224C4.21812 2.6217 4.23853 2.54921 4.26916 2.45472ZM4.70749 2.74726C4.65644 2.74855 4.60608 2.75049 4.55503 2.75179C3.46398 5.76124 2.3736 8.77134 1.2771 11.7963C3.54225 11.7963 5.74409 11.7963 7.9895 11.7963C6.88687 8.75646 5.79718 5.75153 4.70749 2.74726ZM19.0464 11.795C21.3163 11.795 23.5174 11.795 25.7594 11.795C24.6555 8.75257 23.5644 5.74571 22.4734 2.73884C22.4243 2.74337 22.3747 2.74726 22.3257 2.75179C21.236 5.75671 20.1463 8.76228 19.0464 11.795Z" fill="#323232"/>
</g>
<defs>
<clipPath id="clip0">
<rect width="27" height="23" fill="white"/>
</clipPath>
</defs>
</svg>
