<svg width="127" height="136" viewBox="0 0 127 136" fill="none" xmlns="http://www.w3.org/2000/svg">
<g clip-path="url(#clip0)">
<path d="M0 123.201H4.81448V135.66H8.78277V123.201H13.5535V119.463H0V123.201Z" fill="#005BBD"/>
<path d="M19.101 129.351H25.9543V126.045H19.101V122.994H27.2418V119.463H15.3297V135.66H27.53V132.129H19.101V129.351Z" fill="#005BBD"/>
<path d="M37.0022 122.902C37.8156 122.902 38.5523 123.08 39.2089 123.438C39.8654 123.796 40.3942 124.269 40.7954 124.86L43.8337 122.263C43.0495 121.292 42.0574 120.527 40.8611 119.973C39.6648 119.419 38.3335 119.142 36.8673 119.142C34.3068 119.142 32.2716 119.888 30.7543 121.384C29.2371 122.88 28.4821 124.926 28.4821 127.523C28.4821 130.134 29.2407 132.199 30.7543 133.717C32.2716 135.235 34.3068 135.996 36.8673 135.996C39.8544 135.996 42.1778 134.973 43.8337 132.919L40.7954 130.301C39.9383 131.59 38.6727 132.236 37.0022 132.236C35.6418 132.236 34.5622 131.815 33.7634 130.973C32.9646 130.131 32.5671 128.978 32.5671 127.523C32.5671 126.082 32.9646 124.948 33.7634 124.129C34.5622 123.312 35.6418 122.902 37.0022 122.902Z" fill="#005BBD"/>
<path d="M55.5452 126.367H49.3374V119.463H45.453V135.66H49.3374V130.009H55.5452V135.66H59.4296V119.463H55.5452V126.367Z" fill="#005BBD"/>
<path d="M72.7825 128.395L64.0654 119.441H62.0922V135.66H65.951V126.729L74.6463 135.705H76.645V119.464H72.7825V128.395Z" fill="#005BBD"/>
<path d="M87.3572 119.124C84.815 119.124 82.7542 119.91 81.1786 121.48C79.603 123.054 78.8151 125.081 78.8151 127.575C78.8151 130.079 79.6102 132.11 81.2005 133.669C82.7907 135.224 84.8405 136.004 87.3572 136.004C89.914 136.004 91.982 135.22 93.5576 133.658C95.1333 132.096 95.9211 130.068 95.9211 127.578C95.9211 125.074 95.126 123.039 93.5358 121.473C91.9455 119.907 89.8848 119.124 87.3572 119.124ZM90.6069 130.976C89.7863 131.833 88.703 132.262 87.3572 132.262C86.0113 132.262 84.9317 131.83 84.1183 130.965C83.305 130.101 82.8965 128.971 82.8965 127.571C82.8965 126.16 83.3086 125.019 84.1293 124.154C84.9499 123.29 86.0259 122.858 87.3572 122.858C88.7176 122.858 89.8045 123.29 90.6179 124.154C91.4312 125.019 91.8361 126.16 91.8361 127.571C91.8397 128.986 91.4276 130.12 90.6069 130.976Z" fill="#005BBD"/>
<path d="M108.698 126.865C110.073 126.289 110.762 125.111 110.762 123.334C110.762 122.09 110.31 121.133 109.409 120.464C108.508 119.796 107.206 119.463 105.506 119.463H98.1205V135.656H105.794C109.905 135.656 111.962 134.046 111.962 130.829C111.962 129.798 111.659 128.93 111.054 128.232C110.445 127.534 109.661 127.08 108.698 126.865ZM101.998 122.791H105.236C105.813 122.791 106.261 122.932 106.579 123.212C106.896 123.493 107.056 123.892 107.056 124.409C107.056 125.502 106.422 126.049 105.149 126.049H101.998V122.791ZM107.388 131.867C107.02 132.147 106.495 132.288 105.813 132.288H101.998V129.052H105.681C106.407 129.052 106.965 129.196 107.356 129.484C107.749 129.772 107.943 130.168 107.943 130.67C107.943 131.187 107.757 131.586 107.388 131.867Z" fill="#005BBD"/>
<path d="M122.517 119.463L119.257 126.071L116.04 119.463H111.492L117.262 130.009V135.66H121.23V129.987L127 119.463H122.517Z" fill="#005BBD"/>
<path d="M110.321 53.1552C109.836 38.4361 98.0329 37.3427 98.0329 37.3427C98.0329 37.3427 104.441 31.3701 104.368 19.6428L104.376 19.6391C104.376 19.6391 104.635 14.1503 102.778 9.78815C101.863 7.33187 99.3751 3.95588 92.6166 2.75545L84.9171 0.461697C84.9171 0.461697 83.4399 0.0886391 81.7257 0.0184598C80.0151 -0.0517194 77.9871 0.0553963 76.1671 0.432148C74.3471 0.8089 73.1107 1.11547 73.1107 1.11547L8.40704 17.6002V33.3905L21.5557 37.1433L51.2668 29.5676V28.5519L21.5593 36.1866V21.5376L86.4088 4.78695C86.4088 4.78695 88.4221 4.46561 90.4355 4.28462C91.3327 4.20336 92.2518 4.24399 93.1892 4.25876C93.3387 4.29201 96.997 5.15263 98.8426 6.35306C100.75 7.70863 102.909 10.4789 103.223 17.4709C103.238 17.7812 103.289 18.0545 103.292 18.3833C103.292 18.4867 103.314 18.6049 103.318 18.712C103.318 18.9041 103.343 18.9816 103.34 19.1774C103.336 19.4359 103.325 19.6945 103.318 19.9604C103.139 25.6302 101.454 32.3674 95.6548 38.1332C95.6548 38.1332 112.097 38.4102 108.661 59.9552C106.21 75.3245 95.8846 77.5517 95.8846 77.5517L51.2741 88.773V29.5676L38.2823 32.8845V86.7046L51.2741 90.5017L98.0693 78.2203C98.0657 78.2203 110.981 73.304 110.321 53.1552Z" fill="#005BBD"/>
<path d="M87.9079 65.2628C87.9079 65.2628 91.0483 64.369 92.5291 62.8952C94.0099 61.4177 94.4367 60.812 95.1406 58.9947C95.8409 57.1774 95.622 54.5549 95.622 54.5549C95.622 54.5549 95.4178 51.9472 93.74 50.7283C92.0623 49.5094 90.1656 49.4429 88.5207 49.768C87.0472 50.0598 83.4473 51.0238 82.7141 51.2233L66.9613 54.7101V41.0067L85.6393 36.2308C85.6393 36.2308 88.5535 35.577 90.3845 33.2094C92.2154 30.8417 92.3066 27.6024 92.3066 27.6024C92.3066 27.6024 92.5765 23.894 91.0629 21.9955C89.5492 20.0969 87.0399 20.4626 87.0399 20.4626L80.4419 22.0841L65.9146 25.3345V25.4121V25.7925V33.9629V41.2726V54.9428V55.4008V70.9252L66.4252 70.7811L87.9079 65.2628ZM66.9942 26.1951L79.2455 23.4175C79.3002 24.9984 79.0778 29.9664 73.5083 31.9979C70.3315 32.9508 68.0701 33.479 66.9613 33.7265L66.9942 26.1951ZM66.9759 55.9475L82.5901 52.3942C82.6157 54.108 82.1889 59.5857 74.9709 61.2367C71.1667 62.2931 68.1394 63.0503 66.9285 63.3495L66.9759 55.9475Z" fill="#005BBD"/>
</g>
<defs>
<clipPath id="clip0">
<rect width="127" height="136" fill="white"/>
</clipPath>
</defs>
</svg>
