<svg width="35" height="35" viewBox="0 0 35 35" fill="none" xmlns="http://www.w3.org/2000/svg">
<circle cx="17.5" cy="17.5" r="17.5" fill="#1877F2"/>
<path d="M19.2353 27.9952C17.6667 27.9952 16.2108 27.9856 14.7549 27.9999C14.2843 28.0047 14.3382 27.6993 14.3382 27.413C14.3382 24.9462 14.3431 22.4793 14.3431 20.0124C14.3431 19.1964 14.3431 18.3757 14.3431 17.5025C13.5392 17.5025 12.7892 17.5025 12 17.5025C12 16.3049 12 15.1597 12 13.9334C12.7451 13.9334 13.5098 13.9334 14.348 13.9334C14.348 12.9505 14.3873 12.0487 14.3431 11.1564C14.2059 8.47002 16.2157 7.04333 18.5392 7.00992C19.9902 6.99084 21.4461 7.00515 22.9412 7.00515C22.9412 8.16941 22.9412 9.33367 22.9412 10.6124C22.2647 10.6124 21.5784 10.6124 20.8971 10.6124C19.5245 10.6124 19.2255 10.9083 19.2206 12.2491C19.2206 12.7787 19.2206 13.3084 19.2206 13.8953C20.5 13.8953 21.7157 13.8953 23 13.8953C22.8431 15.112 22.6961 16.2572 22.5392 17.4596C21.4412 17.4596 20.3725 17.4596 19.2353 17.4596C19.2353 20.9762 19.2353 24.4404 19.2353 27.9952Z" fill="white"/>
</svg>
