<svg width="25" height="23" viewBox="0 0 25 23" fill="none" xmlns="http://www.w3.org/2000/svg">
<g clip-path="url(#clip0)">
<path d="M20.704 3.2898C15.4691 3.2898 10.0559 3.289 4.73142 3.29788C4.72978 3.29788 4.72896 3.29788 4.72732 3.29788C4.49814 3.29788 4.48089 3.26719 4.43325 3.10891C4.31496 2.72127 4.16957 2.34009 4.02911 1.97183C3.97818 1.83858 3.92725 1.70452 3.87714 1.57127C3.62497 0.896125 3.23643 0.441455 2.68772 0.181413C2.07166 -0.110933 1.33073 -0.0471338 0.753273 0.346967C0.230026 0.704727 -0.0492573 1.26519 0.00577803 1.84665C0.032885 2.13657 0.340097 2.47737 0.637452 2.54763C0.899486 2.61063 1.10648 2.41761 1.27241 2.26337C1.30691 2.23187 1.33977 2.20037 1.3718 2.17453C1.4753 2.08893 1.49912 1.97506 1.5057 1.90561C1.53691 1.862 1.56566 1.81758 1.59441 1.77397C1.64123 1.70209 1.71762 1.58499 1.76034 1.55269C1.84577 1.53815 2.03716 1.58903 2.22691 1.7029C2.24826 1.71582 2.30987 1.77478 2.40762 2.04047C3.16743 4.08689 3.92396 6.13412 4.68132 8.18134C5.27438 9.78521 5.86745 11.3891 6.46216 12.9929C6.46791 13.0075 6.4712 13.0196 6.47448 13.0293C6.46955 13.0333 6.46298 13.0373 6.45559 13.0422C5.09203 13.937 4.5466 15.3365 4.99756 16.7862C5.43785 18.201 6.72091 19.0797 8.34651 19.0797C12.8364 19.0805 17.3263 19.0805 21.817 19.0805C21.8392 19.0805 21.8638 19.0837 21.8885 19.0853C21.9279 19.0894 21.9731 19.0934 22.0224 19.0934C22.1218 19.0934 22.2343 19.0765 22.3362 19.0014C22.5275 18.86 22.8175 18.646 22.8208 18.344C22.8249 18.0323 22.5226 17.7787 22.3419 17.6559C22.1776 17.5437 21.9862 17.559 21.8466 17.5695C21.8146 17.5719 21.7825 17.5752 21.7529 17.5752C19.0809 17.5744 16.4088 17.5744 13.7367 17.5744H11.7324C11.3792 17.5735 11.0235 17.5752 10.6687 17.576C9.84642 17.5776 8.99707 17.5792 8.16251 17.5711C7.35751 17.5639 6.68887 17.0866 6.46052 16.3557C6.29048 15.8114 6.3833 15.2445 6.7168 14.8011C7.0618 14.3408 7.61297 14.0767 8.2274 14.0759C11.1533 14.0719 14.1285 14.0727 17.0059 14.0727C18.6931 14.0727 20.3804 14.0735 22.0667 14.0727C23.2603 14.0727 23.9256 13.4694 24.0447 12.2806C24.1778 10.9546 24.3248 9.60673 24.4661 8.30329C24.5343 7.67741 24.6025 7.05072 24.6698 6.42485C24.7355 5.80947 24.7996 5.19409 24.8661 4.56175L24.9992 3.29061L20.704 3.2898ZM5.18485 4.8226H23.2931C23.2841 4.91386 23.2759 5.00511 23.2668 5.09637C23.2233 5.547 23.183 5.97179 23.1362 6.40385C23.0385 7.31642 22.9391 8.22818 22.8397 9.14075C22.7296 10.1527 22.6196 11.1654 22.5111 12.1773C22.4717 12.5431 22.4479 12.5649 22.0791 12.5649C20.8995 12.5649 19.7191 12.5649 18.5395 12.5649C15.2473 12.5641 11.8425 12.5633 8.49354 12.5762C8.49108 12.5762 8.48861 12.5762 8.48697 12.5762C8.19044 12.5762 8.08858 12.4995 7.97276 12.1902C7.38791 10.6291 6.78662 9.04465 6.20506 7.51266C5.98409 6.9304 5.76313 6.34813 5.54217 5.76586C5.43292 5.47755 5.32449 5.18924 5.20867 4.88236L5.18485 4.8226Z" fill="#323232"/>
<path d="M20.9298 19.1405C20.3984 19.13 19.9022 19.3247 19.5285 19.6824C19.1547 20.041 18.9469 20.5255 18.9428 21.0472C18.9387 21.5738 19.1432 22.0688 19.5194 22.4395C19.8858 22.8005 20.3696 22.9992 20.883 22.9992C20.8863 22.9992 20.8888 22.9992 20.892 22.9992C21.9796 22.9943 22.8626 22.1246 22.8602 21.061C22.8585 20.0192 21.9919 19.1575 20.9298 19.1405ZM20.8953 20.6354C20.8962 20.6354 20.897 20.6354 20.8986 20.6354C21.1155 20.637 21.3299 20.8486 21.3307 21.0626C21.3315 21.2863 21.1335 21.4882 20.906 21.4947C20.7984 21.4971 20.6867 21.451 20.6013 21.3679C20.5134 21.2823 20.4641 21.1692 20.4657 21.0586C20.469 20.8437 20.6809 20.6354 20.8953 20.6354Z" fill="#323232"/>
<path d="M8.76211 19.1406C8.75718 19.1406 8.75226 19.1406 8.74815 19.1406C8.2249 19.1406 7.73698 19.336 7.37144 19.693C7.00016 20.0548 6.79563 20.5434 6.79563 21.0683C6.7948 21.5876 6.9977 22.0721 7.36569 22.4339C7.73451 22.7957 8.22901 22.9944 8.75883 22.9944C8.76047 22.9944 8.76293 22.9944 8.76458 22.9944C9.28782 22.9928 9.78068 22.7885 10.1511 22.4186C10.5232 22.0479 10.7245 21.5585 10.7179 21.0408C10.7048 19.9999 9.8275 19.1479 8.76211 19.1406ZM8.45326 21.3703C8.36865 21.2855 8.32429 21.1717 8.32758 21.0481C8.33087 20.9407 8.38179 20.8333 8.46804 20.7533C8.54772 20.679 8.64958 20.6379 8.74815 20.6379C8.75143 20.6379 8.75554 20.6379 8.75883 20.6379C8.98143 20.6451 9.18843 20.8543 9.18515 21.0691C9.18186 21.2912 8.97568 21.4939 8.7539 21.4947C8.63643 21.4955 8.53294 21.4503 8.45326 21.3703Z" fill="#323232"/>
</g>
<defs>
<clipPath id="clip0">
<rect width="25" height="23" fill="white"/>
</clipPath>
</defs>
</svg>
