<svg width="35" height="35" viewBox="0 0 35 35" fill="none" xmlns="http://www.w3.org/2000/svg">
<path d="M0 17.0563V18.0026C0.24398 27.0521 7.5338 34.3198 16.2062 35H18.8752C27.5993 34.3124 34.7634 26.9782 35 17.9878V17.0563C34.7634 7.90328 27.3479 0.480333 18.4168 0.0219436C8.80545 -0.466019 0.26616 7.24527 0 17.0563Z" fill="url(#paint0_radial)"/>
<path d="M17.5 8.89117C20.3035 8.89117 20.6381 8.89847 21.7461 8.94958C22.7723 8.99339 23.3226 9.16864 23.6944 9.30737C24.1852 9.49722 24.5347 9.72357 24.8991 10.0887C25.2635 10.4538 25.494 10.8042 25.6873 11.2935C25.8286 11.6659 25.9996 12.2208 26.0517 13.243C26.1038 14.3529 26.1112 14.6815 26.1112 17.4854C26.1112 20.2893 26.1038 20.6179 26.0517 21.7277C26.0071 22.75 25.8361 23.3049 25.6873 23.6773C25.494 24.1665 25.2709 24.517 24.8991 24.8821C24.5347 25.2472 24.1852 25.4736 23.6944 25.6634C23.3226 25.8095 22.7649 25.9774 21.7461 26.0212C20.6381 26.0723 20.3035 26.0796 17.5 26.0796C14.6965 26.0796 14.3619 26.0723 13.2539 26.0212C12.2277 25.9774 11.6774 25.8022 11.3056 25.6634C10.8148 25.4736 10.4653 25.2472 10.1009 24.8821C9.73654 24.517 9.50602 24.1665 9.31268 23.6773C9.17139 23.3049 9.00035 22.75 8.9483 21.7277C8.89625 20.6179 8.88881 20.2893 8.88881 17.4854C8.88881 14.6815 8.89625 14.3529 8.9483 13.243C8.99292 12.2208 9.16395 11.6659 9.31268 11.2935C9.50602 10.8042 9.72911 10.4538 10.1009 10.0887C10.4653 9.72357 10.8148 9.49722 11.3056 9.30737C11.6774 9.16133 12.2351 8.99339 13.2539 8.94958C14.3619 8.90577 14.6965 8.89117 17.5 8.89117ZM17.5 7C14.6445 7 14.2875 7.0146 13.1721 7.06572C12.0567 7.11683 11.2907 7.29207 10.6215 7.55494C9.92989 7.8251 9.34242 8.18289 8.76239 8.76704C8.17493 9.35118 7.81799 9.93533 7.55028 10.629C7.29001 11.2935 7.11154 12.0602 7.05949 13.1773C7.00744 14.2945 7 14.6523 7 17.5C7 20.3477 7.01487 20.7055 7.05949 21.8227C7.11154 22.9398 7.29001 23.6992 7.55028 24.371C7.81799 25.0574 8.17493 25.6488 8.76239 26.233C9.34986 26.8171 9.92989 27.1749 10.6215 27.4451C11.2907 27.7079 12.0567 27.8832 13.1721 27.9343C14.295 27.9854 14.6519 28 17.5 28C20.3481 28 20.7125 27.9854 21.8279 27.9343C22.9433 27.8832 23.7093 27.7079 24.3785 27.4451C25.0701 27.1749 25.6576 26.8171 26.2376 26.233C26.8251 25.6488 27.182 25.0647 27.4497 24.371C27.71 23.7065 27.8885 22.9398 27.9405 21.8227C27.9926 20.7055 28 20.3477 28 17.5C28 14.6523 27.9851 14.2945 27.9405 13.1773C27.8885 12.0602 27.71 11.3008 27.4497 10.629C27.182 9.94263 26.8251 9.35118 26.2376 8.76704C25.6501 8.18289 25.0701 7.8251 24.3785 7.55494C23.7093 7.29207 22.9433 7.11683 21.8279 7.06572C20.7125 7.0146 20.3481 7 17.5 7Z" fill="white"/>
<path d="M17.5007 12.104C14.5187 12.104 12.1094 14.5136 12.1094 17.4927C12.1094 20.4719 14.5262 22.8815 17.5007 22.8815C20.4752 22.8815 22.8919 20.4719 22.8919 17.4927C22.8919 14.5136 20.4752 12.104 17.5007 12.104ZM17.5007 20.9903C15.5672 20.9903 13.9982 19.4277 13.9982 17.4927C13.9982 15.5578 15.5672 13.9952 17.5007 13.9952C19.4341 13.9952 21.0031 15.5578 21.0031 17.4927C21.0031 19.4277 19.4341 20.9903 17.5007 20.9903Z" fill="white"/>
<path d="M23.1063 13.1481C23.8004 13.1481 24.3631 12.5858 24.3631 11.8921C24.3631 11.1985 23.8004 10.6362 23.1063 10.6362C22.4123 10.6362 21.8496 11.1985 21.8496 11.8921C21.8496 12.5858 22.4123 13.1481 23.1063 13.1481Z" fill="white"/>
<defs>
<radialGradient id="paint0_radial" cx="0" cy="0" r="1" gradientUnits="userSpaceOnUse" gradientTransform="translate(0.639245 31.7901) rotate(-86.9999) scale(50.6021 43.011)">
<stop stop-color="#FED576"/>
<stop offset="0.2634" stop-color="#F47133"/>
<stop offset="0.6091" stop-color="#BC3081"/>
<stop offset="1" stop-color="#4C63D2"/>
</radialGradient>
</defs>
</svg>
