<svg width="84" height="90" viewBox="0 0 84 90" fill="none" xmlns="http://www.w3.org/2000/svg">
<g clip-path="url(#clip0)">
<path d="M0 81.5304H3.18438V89.7751H5.80908V81.5304H8.9645V79.0568H0V81.5304Z" fill="#005BBD"/>
<path d="M12.6338 85.6002H17.1667V83.4125H12.6338V81.3935H18.0183V79.0568H10.1393V89.7751H18.2088V87.4383H12.6338V85.6002Z" fill="#005BBD"/>
<path d="M24.4739 81.3324C25.0118 81.3324 25.4992 81.4498 25.9334 81.6869C26.3676 81.924 26.7174 82.2368 26.9828 82.6279L28.9923 80.9096C28.4737 80.2667 27.8175 79.7607 27.0262 79.3941C26.2349 79.0274 25.3544 78.8441 24.3846 78.8441C22.6911 78.8441 21.345 79.3379 20.3414 80.3278C19.3379 81.3178 18.8385 82.6719 18.8385 84.3903C18.8385 86.1184 19.3403 87.4848 20.3414 88.4894C21.345 89.494 22.6911 89.9976 24.3846 89.9976C26.3604 89.9976 27.8971 89.3205 28.9923 87.9614L26.9828 86.2284C26.4159 87.0815 25.5788 87.5092 24.4739 87.5092C23.5741 87.5092 22.86 87.2306 22.3317 86.6733C21.8033 86.116 21.5404 85.3534 21.5404 84.3903C21.5404 83.437 21.8033 82.6866 22.3317 82.144C22.86 81.6038 23.5741 81.3324 24.4739 81.3324Z" fill="#005BBD"/>
<path d="M36.7385 83.6252H32.6326V79.0568H30.0634V89.7751H32.6326V86.0353H36.7385V89.7751H39.3078V79.0568H36.7385V83.6252Z" fill="#005BBD"/>
<path d="M48.1396 84.9671L42.374 79.0421H41.0688V89.7751H43.6212V83.8648L49.3724 89.8045H50.6944V79.0568H48.1396V84.9671Z" fill="#005BBD"/>
<path d="M57.7796 78.8319C56.0981 78.8319 54.7351 79.3526 53.6929 80.3914C52.6508 81.4327 52.1297 82.7746 52.1297 84.4245C52.1297 86.0818 52.6556 87.4262 53.7074 88.4577C54.7592 89.4867 56.115 90.0025 57.7796 90.0025C59.4707 90.0025 60.8385 89.4843 61.8807 88.4503C62.9228 87.4164 63.4439 86.0744 63.4439 84.427C63.4439 82.7697 62.918 81.4229 61.8662 80.3865C60.8144 79.3501 59.4514 78.8319 57.7796 78.8319ZM59.929 86.6758C59.3862 87.2428 58.6697 87.5264 57.7796 87.5264C56.8894 87.5264 56.1753 87.2404 55.6373 86.6684C55.0994 86.0964 54.8292 85.3485 54.8292 84.4221C54.8292 83.4884 55.1018 82.7331 55.6446 82.1611C56.1874 81.5891 56.899 81.3031 57.7796 81.3031C58.6794 81.3031 59.3983 81.5891 59.9363 82.1611C60.4742 82.7331 60.742 83.4884 60.742 84.4221C60.7444 85.3583 60.4718 86.1087 59.929 86.6758Z" fill="#005BBD"/>
<path d="M71.8945 83.9552C72.804 83.5739 73.26 82.7941 73.26 81.6184C73.26 80.7947 72.9608 80.1616 72.365 79.7192C71.7691 79.2768 70.9079 79.0568 69.7837 79.0568H64.8986V89.7727H69.9743C72.6931 89.7727 74.0536 88.707 74.0536 86.578C74.0536 85.896 73.8534 85.3216 73.453 84.8596C73.0501 84.3976 72.5314 84.097 71.8945 83.9552ZM67.463 81.2591H69.6052C69.9863 81.2591 70.2831 81.352 70.4929 81.5377C70.7028 81.7235 70.809 81.9875 70.809 82.3297C70.809 83.0532 70.3892 83.415 69.5473 83.415H67.463V81.2591ZM71.0285 87.2648C70.7848 87.4506 70.4374 87.5435 69.9863 87.5435H67.463V85.4022H69.8995C70.3796 85.4022 70.7487 85.4976 71.0068 85.6882C71.2673 85.8789 71.3952 86.1404 71.3952 86.4728C71.3952 86.815 71.2721 87.079 71.0285 87.2648Z" fill="#005BBD"/>
<path d="M81.0351 79.0568L78.8784 83.4297L76.7507 79.0568H73.7424L77.5589 86.0353V89.7751H80.1836V86.0206L84 79.0568H81.0351Z" fill="#005BBD"/>
<path d="M72.9681 35.1763C72.6472 25.4357 64.8407 24.7121 64.8407 24.7121C64.8407 24.7121 69.0793 20.7597 69.031 12.9989L69.0359 12.9965C69.0359 12.9965 69.2071 9.36423 67.9792 6.47748C67.3737 4.85201 65.7284 2.6179 61.2583 1.82349L56.1657 0.305567C56.1657 0.305567 55.1886 0.0586905 54.0548 0.0122484C52.9234 -0.0341938 51.5821 0.0366916 50.3783 0.286013C49.1745 0.535334 48.3567 0.738212 48.3567 0.738212L5.56061 11.6472V22.0967L14.2573 24.5801L33.9088 19.5668V18.8946L14.2597 23.9471V14.2529L57.1523 3.16787C57.1523 3.16787 58.484 2.95521 59.8156 2.83544C60.4091 2.78167 61.017 2.80855 61.637 2.81833C61.7359 2.84033 64.1556 3.40986 65.3762 4.20426C66.6379 5.10133 68.0661 6.93457 68.2735 11.5617C68.2832 11.767 68.317 11.9479 68.3194 12.1654C68.3194 12.2339 68.3338 12.3121 68.3363 12.383C68.3363 12.5101 68.3531 12.5614 68.3507 12.691C68.3483 12.8621 68.3411 13.0332 68.3363 13.2092C68.218 16.9612 67.1035 21.4196 63.2678 25.2352C63.2678 25.2352 74.1429 25.4185 71.8704 39.6763C70.2493 49.8471 63.4198 51.321 63.4198 51.321L33.9136 58.7469V19.5668L25.3206 21.7618V57.3781L33.9136 59.8908L64.8648 51.7635C64.8624 51.7635 73.4047 48.5101 72.9681 35.1763Z" fill="#005BBD"/>
<path d="M58.1439 43.1887C58.1439 43.1887 60.2209 42.5972 61.2004 41.6219C62.1798 40.6442 62.4621 40.2433 62.9277 39.0407C63.3908 37.8381 63.2461 36.1026 63.2461 36.1026C63.2461 36.1026 63.111 34.377 62.0013 33.5703C60.8916 32.7637 59.6371 32.7197 58.5491 32.9348C57.5745 33.1279 55.1935 33.7659 54.7086 33.8979L44.2894 36.2053V27.1369L56.6433 23.9764C56.6433 23.9764 58.5709 23.5437 59.7819 21.9769C60.9929 20.4101 61.0532 18.2664 61.0532 18.2664C61.0532 18.2664 61.2317 15.8123 60.2306 14.5559C59.2294 13.2996 57.5697 13.5415 57.5697 13.5415L53.2057 14.6146L43.597 16.7656V16.8169V17.0687V22.4755V27.3129V36.3593V36.6624V46.9359L43.9348 46.8406L58.1439 43.1887ZM44.3111 17.3351L52.4144 15.497C52.4506 16.5432 52.3034 19.8308 48.6197 21.1752C46.5185 21.8058 45.0228 22.1553 44.2894 22.3191L44.3111 17.3351ZM44.2991 37.0242L54.6266 34.6727C54.6435 35.8069 54.3612 39.4318 49.5871 40.5244C47.0709 41.2235 45.0686 41.7246 44.2677 41.9226L44.2991 37.0242Z" fill="#005BBD"/>
</g>
<defs>
<clipPath id="clip0">
<rect width="84" height="90" fill="white"/>
</clipPath>
</defs>
</svg>
