<svg width="45" height="45" viewBox="0 0 45 45" fill="none" xmlns="http://www.w3.org/2000/svg">
<g clip-path="url(#clip0)">
<path d="M45 34.1016C42.2016 35.5676 39.4043 37.0359 36.6047 38.4996C32.6121 40.5867 28.6184 42.6703 24.6246 44.7551C24.511 44.8148 24.3926 44.8664 24.2192 44.9496C24.2074 44.7656 24.1922 44.6285 24.1922 44.4914C24.2027 37.5785 24.2156 30.6645 24.218 23.7516C24.218 23.4281 24.3129 23.2629 24.6059 23.1176C31.2586 19.8434 37.9067 16.5586 44.5559 13.2773C44.6988 13.207 44.8512 13.1555 45 13.0957C45 20.0977 45 27.0996 45 34.1016Z" fill="#005BBD"/>
<path d="M0 13.0957C0.121875 13.1367 0.250781 13.166 0.365625 13.2223C2.93789 14.4879 5.5043 15.7629 8.08242 17.0168C8.36953 17.1562 8.44336 17.3215 8.44219 17.6191C8.43164 19.9043 8.43398 22.1883 8.43867 24.4734C8.43984 25.2199 8.79258 25.773 9.46992 26.0707C10.1191 26.3555 10.7355 26.2324 11.2617 25.7531C11.6648 25.3851 11.8078 24.9094 11.8055 24.3691C11.7973 22.7285 11.802 21.0879 11.8031 19.4484C11.8031 19.2902 11.8031 19.1332 11.8031 18.9047C12.0152 18.9996 12.1711 19.0652 12.3223 19.1391C15.0117 20.4633 17.6977 21.7945 20.3941 23.1047C20.7305 23.2676 20.8512 23.4433 20.85 23.8242C20.8336 30.8836 20.8336 37.9429 20.8312 45.0023C20.802 45.0023 20.7727 45.0023 20.7434 45.0023C20.5453 44.884 20.3531 44.755 20.1492 44.6484C13.9078 41.3894 7.66875 38.1281 1.41914 34.8844C0.7875 34.5562 0.261328 34.1695 0.00117187 33.4887C0 26.6894 0 19.8926 0 13.0957Z" fill="#005BBD"/>
<path d="M22.8516 0C25.2855 1.1918 27.7184 2.38476 30.2273 3.61406C28.9313 4.27969 27.7254 4.90078 26.5184 5.51836C21.0773 8.3039 15.634 11.0871 10.1965 13.8809C9.92461 14.0203 9.71719 14.0379 9.43242 13.8961C6.99844 12.682 4.55508 11.4867 2.11406 10.2855C1.99805 10.2281 1.88672 10.1625 1.7168 10.0711C1.92891 9.96445 2.09062 9.88124 2.25352 9.80038C8.64141 6.64687 15.027 3.49453 21.4125 0.339844C21.6316 0.232031 21.8449 0.113672 22.0605 0C22.3242 0 22.5879 0 22.8516 0Z" fill="#005BBD"/>
<path d="M13.6183 15.961C16.6336 14.42 19.5762 12.9165 22.5176 11.4129C26.2418 9.50982 29.9637 7.60318 33.6926 5.70943C33.8613 5.62388 34.1308 5.57115 34.2832 5.64498C37.2152 7.07115 40.1367 8.51842 43.0605 9.96217C43.1121 9.98795 43.159 10.0231 43.2586 10.0864C43.0523 10.1919 42.8777 10.2856 42.6996 10.3735C36.1101 13.6383 29.5183 16.9008 22.9324 20.1739C22.623 20.3274 22.391 20.3192 22.0851 20.1669C19.4566 18.8532 16.8176 17.5583 14.1832 16.2575C14.0144 16.1731 13.8492 16.0817 13.6183 15.961Z" fill="#005BBD"/>
</g>
<defs>
<clipPath id="clip0">
<rect width="45" height="45" fill="white"/>
</clipPath>
</defs>
</svg>
