<svg width="52" height="52" viewBox="0 0 52 52" fill="none" xmlns="http://www.w3.org/2000/svg">
<g clip-path="url(#clip0)">
<path d="M13.5132 0C14.4901 0.578004 15.4597 1.16924 16.446 1.73198C22.8959 5.41065 29.3489 9.08219 35.8008 12.7578C35.9195 12.826 36.0351 12.8993 36.2126 13.0071C31.7471 20.3695 27.2889 27.7198 22.8076 35.1066C15.1897 30.7695 7.6127 26.4569 0 22.1229C0.0546241 22.0201 0.0945417 21.9346 0.142863 21.8532C4.51699 14.6394 8.89112 7.42552 13.2663 0.212681C13.3104 0.140431 13.3608 0.0712329 13.4092 0C13.4428 0 13.4785 0 13.5132 0ZM15.3525 9.29487C14.177 11.0401 13.0257 12.7497 11.8503 14.4959C15.8988 17.0532 19.9252 19.5962 23.9873 22.1605C25.1638 20.4113 26.3204 18.6935 27.4875 16.9575C23.4159 14.387 19.3999 11.8511 15.3525 9.29487Z" fill="#005BBD"/>
<path d="M10.3449 32.9881C10.7735 33.158 11.2273 33.2832 11.6255 33.504C15.4712 35.64 19.3075 37.7912 23.1459 39.9394C24.084 40.4645 24.0819 40.4655 24.6092 39.5791C30.7681 29.2412 36.9269 18.9023 43.0868 8.56435C43.424 7.99754 43.4492 7.98533 44.0533 8.32114C46.4893 9.67762 48.9232 11.0361 51.355 12.4008C52.02 12.7742 52.1754 13.3563 51.8025 13.9943C51.4328 14.6293 50.8193 14.8003 50.1638 14.436C48.6648 13.6036 47.1689 12.7661 45.6752 11.9255C45.0659 11.5826 45.0638 11.5744 44.6982 12.1881C42.1309 16.4916 39.5667 20.7971 37.0015 25.1016C33.2839 31.3395 29.5674 37.5765 25.8498 43.8144C25.7889 43.9172 25.729 44.02 25.6649 44.1218C25.3183 44.6774 25.2006 44.714 24.626 44.4057C24.1071 44.1269 23.5955 43.8358 23.0818 43.5478C18.6846 41.0862 14.2842 38.6307 9.8964 36.1528C9.53399 35.9483 9.17578 35.644 8.96464 35.3001C8.30285 34.2285 9.01821 33.0837 10.3449 32.9881Z" fill="#005BBD"/>
<path d="M28.5925 45.9025C28.5978 42.5342 31.4298 39.8049 34.9016 39.8222C38.3377 39.8385 41.1624 42.5973 41.1508 45.9238C41.1382 49.287 38.3009 52.0142 34.8281 51.999C31.3805 51.9847 28.5873 49.2535 28.5925 45.9025ZM34.8459 42.9432C33.1568 42.9493 31.7849 44.2753 31.7807 45.9065C31.7754 47.5551 33.1768 48.9014 34.8838 48.8891C36.5792 48.878 37.9375 47.5591 37.9417 45.9208C37.9448 44.2611 36.5687 42.9371 34.8459 42.9432Z" fill="#005BBD"/>
<path d="M21.691 18.7342C19.776 17.5243 17.9135 16.3469 16.0216 15.1512C16.57 14.3371 17.0921 13.5617 17.6551 12.7252C19.5396 13.9138 21.4011 15.0881 23.3244 16.3011C22.7835 17.1081 22.2561 17.8916 21.691 18.7342Z" fill="#005BBD"/>
</g>
<defs>
<clipPath id="clip0">
<rect width="52" height="52" fill="white"/>
</clipPath>
</defs>
</svg>
