<svg width="39" height="39" viewBox="0 0 39 39" fill="none" xmlns="http://www.w3.org/2000/svg">
<path d="M29.12 39C28.5671 38.8683 28.0107 38.7539 27.4629 38.6031C23.3411 37.4712 20.6232 33.8433 20.7272 29.6296C20.8364 25.2131 23.9945 21.5991 28.1684 20.8537C33.3181 19.9351 38.0727 23.4191 38.8163 28.6485C38.8388 28.8115 38.9376 28.9623 39 29.1183C39 29.5811 39 30.0421 39 30.5049C38.9376 30.6609 38.8405 30.8117 38.8163 30.9729C38.2443 34.944 35.5333 37.8889 31.6611 38.7365C31.2745 38.8215 30.8915 38.9116 30.5067 38.9983C30.0439 39 29.5828 39 29.12 39ZM26.4576 29.8619C26.468 31.7183 27.9483 33.2089 29.7977 33.2245C31.6593 33.2419 33.2141 31.6992 33.2245 29.8289C33.2349 27.95 31.7183 26.4541 29.8081 26.4576C27.8841 26.4628 26.4472 27.9223 26.4576 29.8619Z" fill="#3E93EF"/>
<path d="M9.88 0C10.3757 0.121333 10.8715 0.2444 11.3672 0.362267C15.3296 1.30867 18.3179 4.84987 18.278 9.282C18.2399 13.6725 15.0575 17.3645 10.8316 18.1393C5.746 19.0736 0.856267 15.5289 0.190667 10.4364C0.164667 10.2457 0.0658667 10.0655 0 9.88C0 9.4172 0 8.95613 0 8.49333C0.0641333 8.30787 0.164667 8.12587 0.188933 7.9352C0.677733 4.28827 3.2968 1.31213 6.83973 0.393467C7.38747 0.251333 7.94213 0.13 8.49333 0C8.95613 0 9.4172 0 9.88 0ZM12.5424 9.14333C12.5337 7.28 11.0656 5.798 9.2092 5.7772C7.35107 5.7564 5.78587 7.3008 5.77547 9.16587C5.76507 11.0413 7.28173 12.5441 9.18667 12.5424C11.1072 12.5407 12.5528 11.076 12.5424 9.14333Z" fill="#3E93EF"/>
<path d="M8.49333 0C7.94213 0.13 7.38747 0.251333 6.83973 0.393467C3.2968 1.31213 0.677733 4.28827 0.188933 7.9352C0.164667 8.12587 0.0641333 8.30787 0 8.49333C0 5.6628 0 2.83053 0 0C2.83053 0 5.6628 0 8.49333 0Z" fill="white"/>
<path d="M30.5067 39C30.8915 38.9134 31.2763 38.8232 31.6611 38.7383C35.5333 37.8907 38.2443 34.9458 38.8163 30.9747C38.8388 30.8135 38.9359 30.6627 39 30.5067C39 33.3372 39 36.1695 39 39C36.1695 39 33.3372 39 30.5067 39Z" fill="white"/>
<path d="M34.138 1.20471C35.3201 2.38685 36.6028 3.67125 37.8057 4.87245C26.8476 15.8254 15.8721 26.7956 4.9452 37.7174C3.79253 36.556 2.49947 35.2543 1.28613 34.0323C12.1541 23.173 23.1313 12.2044 34.138 1.20471Z" fill="#3E93EF"/>
</svg>
