<svg width="38" height="48" viewBox="0 0 38 48" fill="none" xmlns="http://www.w3.org/2000/svg">
<g clip-path="url(#clip0)">
<path d="M1.02135 9.92348C4.73587 10.2348 8.28433 9.7608 11.685 8.20909C15.2395 6.58698 17.048 3.34276 18.9708 0C19.6123 1.00736 20.2232 1.85987 20.726 2.77495C23.1318 7.16105 27.0291 9.11008 31.6608 9.76863C33.2332 9.99231 34.8467 9.91253 36.4419 9.94851C36.806 9.95633 37.0407 9.9751 37.1367 10.4366C38.7379 18.1294 38.1529 25.6331 35.0966 32.852C32.217 39.6533 27.2638 44.3866 20.7748 47.5432C19.5803 48.1236 18.657 48.1689 17.4137 47.5667C7.90952 42.9663 2.38039 35.3125 0.571886 24.768C-0.250855 19.9737 -0.215812 15.1746 0.881176 10.4131C0.908601 10.2879 0.951262 10.1659 1.02135 9.92348ZM17.5006 33.4026C21.1298 29.6797 24.7468 25.9709 28.3181 22.3075C27.2546 21.1953 26.1363 20.0253 24.9464 18.7817C22.5101 21.3158 20.0724 23.8498 17.531 26.4934C16.3868 25.2764 15.3157 24.1361 14.3406 23.099C13.1537 24.2847 11.9973 25.4407 10.8531 26.5841C13.0806 28.8663 15.3249 31.1689 17.5006 33.4026Z" fill="#3E93EF"/>
</g>
<defs>
<clipPath id="clip0">
<rect width="38" height="48" fill="white"/>
</clipPath>
</defs>
</svg>
