<svg width="21" height="23" viewBox="0 0 21 23" fill="none" xmlns="http://www.w3.org/2000/svg">
<g clip-path="url(#clip0)">
<path d="M13.3175 12.3837C18.2381 14.1966 20.6599 17.8105 21.0011 22.9998C13.9745 22.9998 7.02208 22.9998 0.00112834 22.9998C-0.0108817 20.5844 0.689942 18.3974 2.08029 16.4339C3.47346 14.466 5.34067 13.1332 7.70313 12.4056C5.43605 11.1816 4.14955 9.34818 3.99766 6.81611C3.88604 4.948 4.52187 3.31252 5.82319 1.96552C8.44987 -0.754627 12.8477 -0.628766 15.3408 2.20027C18.0933 5.32487 17.261 10.4774 13.3175 12.3837ZM19.2159 21.416C18.7785 17.7299 15.4475 13.6529 10.5502 13.6069C5.57805 13.5603 2.16153 17.6797 1.72634 21.416C7.54912 21.416 13.3691 21.416 19.2159 21.416ZM10.4732 1.58299C7.75046 1.57733 5.55827 3.76788 5.55756 6.4958C5.55615 9.20252 7.73916 11.4107 10.4337 11.4284C13.1564 11.4461 15.3853 9.23009 15.391 6.50005C15.3966 3.78485 13.2002 1.58865 10.4732 1.58299Z" fill="#323232"/>
</g>
<defs>
<clipPath id="clip0">
<rect width="21" height="23" fill="white"/>
</clipPath>
</defs>
</svg>
