<svg width="21" height="34" viewBox="0 0 21 34" fill="none" xmlns="http://www.w3.org/2000/svg">
<circle cx="10.5" cy="6.5" r="5.7" stroke="#323232" stroke-width="1.6"/>
<mask id="path-2-inside-1" fill="white">
<path d="M21 23C21 21.5555 20.7284 20.1251 20.2007 18.7905C19.6731 17.4559 18.8996 16.2433 17.9246 15.2218C16.9496 14.2004 15.7921 13.3901 14.5182 12.8373C13.2443 12.2845 11.8789 12 10.5 12C9.12112 12 7.75574 12.2845 6.48182 12.8373C5.2079 13.3901 4.05039 14.2004 3.07538 15.2218C2.10036 16.2433 1.32694 17.4559 0.799265 18.7905C0.27159 20.1251 -1.20545e-07 21.5555 0 23L10.5 23H21Z"/>
</mask>
<path d="M21 23C21 21.5555 20.7284 20.1251 20.2007 18.7905C19.6731 17.4559 18.8996 16.2433 17.9246 15.2218C16.9496 14.2004 15.7921 13.3901 14.5182 12.8373C13.2443 12.2845 11.8789 12 10.5 12C9.12112 12 7.75574 12.2845 6.48182 12.8373C5.2079 13.3901 4.05039 14.2004 3.07538 15.2218C2.10036 16.2433 1.32694 17.4559 0.799265 18.7905C0.27159 20.1251 -1.20545e-07 21.5555 0 23L10.5 23H21Z" stroke="#323232" stroke-width="3.2" mask="url(#path-2-inside-1)"/>
</svg>
