<svg width="35" height="35" viewBox="0 0 35 35" fill="none" xmlns="http://www.w3.org/2000/svg">
<circle cx="17.5" cy="17.5" r="17.5" fill="#4A76A8"/>
<path d="M19.2306 13.5954C19.2306 14.3457 19.2195 15.0959 19.238 15.8462C19.2455 16.1416 19.2863 16.4511 19.368 16.7277C19.5463 17.3233 19.9436 17.4405 20.2704 16.9622C20.7235 16.2963 21.1617 15.607 21.5442 14.8755C22.1124 13.7876 22.5432 12.6013 22.9219 11.3868C22.9479 11.2977 22.9851 11.2133 23.0111 11.1242C23.1522 10.6834 23.4159 10.5053 23.7835 10.5053C24.6302 10.5099 25.4806 10.5053 26.3273 10.5053C26.5724 10.5053 26.8212 10.5053 27.0663 10.5099C27.174 10.5099 27.2855 10.5146 27.3931 10.5334C27.9539 10.6459 28.1024 10.9554 27.9353 11.6353C27.7237 12.5028 27.3412 13.2625 26.9252 13.9893C26.2939 15.0959 25.644 16.1838 25.0016 17.2811C24.8939 17.4686 24.7899 17.6656 24.7008 17.8672C24.5039 18.3033 24.5225 18.7347 24.7862 19.1145C25.035 19.4709 25.3024 19.8038 25.5735 20.1321C26.2456 20.9433 26.9252 21.7498 27.4711 22.7064C27.6382 22.9971 27.7979 23.3066 27.9056 23.6395C27.9762 23.8458 27.9762 24.1131 27.9539 24.3429C27.9168 24.7086 27.6902 24.9853 27.3969 24.9853C26.2494 24.9994 25.1018 25.0134 23.9543 24.9759C23.297 24.9572 22.7808 24.507 22.3426 23.9162C21.9007 23.316 21.4625 22.7111 21.0169 22.1156C20.9054 21.9655 20.7755 21.8342 20.6455 21.7123C20.2184 21.3278 19.7839 21.4497 19.5945 22.0593C19.4571 22.5001 19.3866 22.983 19.3086 23.4473C19.264 23.7146 19.2677 23.9959 19.2306 24.2679C19.1823 24.6289 19.0078 24.8728 18.7218 24.915C18.3579 24.9666 17.9865 25.0041 17.6189 24.9994C15.0119 24.9712 12.9843 23.5129 11.3949 20.9761C9.81285 18.4487 8.5985 15.6492 7.53269 12.7373C7.37672 12.3153 7.21332 11.8979 7.07591 11.4665C6.89394 10.9038 7.03878 10.6084 7.51412 10.5381C7.68866 10.5099 7.87063 10.5146 8.04517 10.5146C8.88445 10.5146 9.72744 10.5193 10.5667 10.5146C10.9641 10.5146 11.25 10.735 11.4171 11.1852C11.7291 12.0105 11.9965 12.8639 12.3493 13.6564C12.7875 14.6364 13.2851 15.5789 13.7827 16.5167C13.9201 16.7746 14.1281 16.9856 14.3323 17.1638C14.6183 17.4124 14.8857 17.3186 15.0119 16.9106C15.1159 16.5777 15.1939 16.2213 15.2236 15.8649C15.3164 14.6505 15.3276 13.436 15.1605 12.2262C15.0751 11.5978 14.7743 11.1946 14.2803 11.0351C13.9201 10.9179 13.9164 10.8523 14.1615 10.4959C14.4066 10.1442 14.7148 10.0035 15.0713 10.0035C16.178 9.99883 17.2847 9.99883 18.395 10.0035C18.9187 10.0082 19.2157 10.4443 19.2232 11.2133C19.2306 12.0058 19.2269 12.8029 19.2269 13.5954C19.2269 13.5954 19.2269 13.5954 19.2306 13.5954Z" fill="white"/>
</svg>
